<?xml version="1.0" standalone="no"?>
<!DOCTYPE svg PUBLIC "-//W3C//DTD SVG 20010904//EN"
 "http://www.w3.org/TR/2001/REC-SVG-20010904/DTD/svg10.dtd">
<svg version="1.0" xmlns="http://www.w3.org/2000/svg"
 width="1681.000000pt" height="1681.000000pt" viewBox="0 0 1681.000000 1681.000000"
 preserveAspectRatio="xMidYMid meet">

<g transform="translate(0.000000,1681.000000) scale(0.100000,-0.100000)"
fill="#000000" stroke="none">
<path d="M4175 10542 c-3 -3 -18 -6 -33 -7 -85 -4 -98 -6 -77 -16 15 -7 11 -8
-18 -5 -30 4 -52 -2 -105 -31 -37 -19 -83 -47 -102 -61 -46 -34 -1340 -1323
-1340 -1336 0 -5 9 -1 20 9 11 10 23 15 27 12 10 -10 -30 -37 -45 -32 -13 5
-47 -27 -197 -186 -129 -135 -145 -156 -150 -190 -3 -21 -2 -26 3 -14 12 33
46 85 55 85 5 0 7 -6 4 -13 -3 -8 1 -14 9 -14 7 0 11 4 8 9 -3 5 0 17 8 26 12
15 11 16 -4 3 -11 -8 -18 -9 -18 -3 0 16 62 61 76 55 7 -2 18 6 25 19 12 23
12 23 -10 4 -25 -23 -27 -15 -5 19 9 14 21 22 30 18 8 -3 14 -2 13 3 -3 19 1
34 11 34 5 0 7 -8 3 -17 -6 -16 -4 -16 15 1 26 22 28 28 7 20 -8 -4 -15 -1
-15 5 0 6 4 11 9 11 5 0 13 9 16 21 4 12 12 18 21 15 45 -18 49 -19 29 -3 -19
15 -19 17 -3 33 10 10 21 14 25 10 5 -5 2 -11 -4 -13 -7 -3 -13 -9 -13 -15 0
-6 6 -6 15 2 8 6 13 22 12 33 -1 14 4 22 14 22 30 0 69 34 66 58 -1 17 3 21
18 19 15 -2 16 0 7 6 -11 7 -8 14 12 30 14 11 26 24 26 30 0 5 7 15 15 22 10
9 15 9 15 1 0 -6 4 -11 10 -11 5 0 7 6 5 13 -2 6 5 23 16 36 17 21 22 22 30
10 9 -12 10 -12 8 1 -3 29 1 41 11 35 6 -3 10 -1 10 5 0 7 7 9 16 6 14 -5 15
-4 4 9 -15 18 -7 19 23 4 20 -9 20 -9 5 4 -22 18 -23 31 -2 23 8 -3 12 -2 9 4
-11 18 5 32 21 19 12 -10 13 -9 8 5 -7 19 7 21 24 4 7 -7 12 -8 12 -2 0 5 -4
14 -10 20 -6 6 -6 15 0 24 9 13 11 13 20 0 8 -12 10 -11 8 5 -2 11 1 21 6 22
5 1 12 7 16 13 4 7 13 9 19 6 6 -4 8 -12 5 -18 -5 -7 -2 -8 5 -3 9 5 10 10 2
18 -14 14 -14 30 -1 22 6 -3 7 1 4 9 -6 16 10 23 19 9 2 -5 2 -2 0 5 -5 23 7
34 23 21 12 -10 13 -9 8 6 -5 13 -3 16 7 13 8 -3 13 -11 11 -17 -1 -7 2 -9 8
-6 8 5 6 13 -6 26 -20 22 -2 26 20 4 13 -13 15 -12 14 12 -1 45 1 55 12 48 6
-3 10 -2 10 3 0 5 9 20 21 33 17 20 22 21 30 9 8 -12 9 -10 4 7 -3 12 -1 24 5
28 5 3 10 1 10 -4 0 -6 4 -11 10 -11 5 0 7 6 5 13 -2 6 5 23 16 36 17 21 22
22 30 10 7 -10 8 -8 7 11 -2 16 2 24 10 23 6 -2 12 2 12 8 0 6 7 9 14 6 11 -4
13 -1 9 10 -4 11 -2 14 5 9 8 -5 10 -2 6 8 -7 19 12 22 20 4 2 -7 4 -2 3 12
-1 15 3 24 11 23 6 -2 12 2 12 7 0 6 5 10 11 10 6 0 9 -7 5 -15 -6 -18 10 -20
20 -3 4 6 0 16 -8 22 -13 9 -13 13 -2 24 18 16 27 15 21 -3 -4 -8 -2 -17 2
-19 5 -3 8 7 7 22 0 15 3 28 8 29 5 1 12 7 16 13 4 7 13 9 19 6 6 -4 8 -12 5
-18 -5 -7 -2 -8 5 -3 9 5 10 10 2 18 -14 14 -14 30 -1 22 6 -3 7 1 4 9 -6 16
10 23 19 9 2 -5 2 -2 0 5 -5 23 7 34 23 21 12 -10 13 -9 8 6 -5 13 -3 16 7 13
8 -3 13 -11 11 -17 -1 -7 2 -9 8 -6 8 5 6 13 -6 26 -20 22 -2 26 20 4 13 -13
14 -11 13 17 -2 28 1 33 18 31 11 -1 14 0 7 3 -10 5 -6 14 14 35 21 22 30 26
37 17 6 -9 7 -8 4 3 -6 18 58 87 70 76 3 -4 -2 -14 -13 -22 -10 -8 -14 -15 -8
-15 17 0 37 27 29 40 -8 12 61 87 71 77 4 -3 -4 -16 -17 -28 l-24 -21 25 15
c16 10 24 23 23 36 -2 13 4 24 15 27 51 17 72 28 72 37 0 7 -4 7 -12 -1 -27
-27 -29 -10 -2 19 20 21 36 29 52 26 17 -3 22 -1 18 10 -4 9 6 19 28 28 19 8
36 19 38 24 6 17 336 63 345 48 3 -5 20 -7 38 -5 19 1 37 -1 41 -5 4 -4 14 -7
23 -7 14 0 14 2 1 10 -23 15 16 12 65 -5 l40 -14 -35 4 c-30 4 -32 4 -12 -5
13 -5 34 -7 46 -4 14 3 27 -1 35 -10 7 -9 17 -13 22 -10 13 8 11 -10 -3 -24
-9 -9 -9 -15 1 -24 10 -11 11 -9 5 6 -6 16 -4 18 10 13 10 -4 15 -3 11 3 -10
16 7 12 38 -9 16 -10 25 -21 20 -23 -4 -3 -2 -3 5 -2 13 4 37 -17 64 -56 14
-19 16 -20 11 -5 l-6 20 24 -20 c37 -30 79 -77 79 -88 0 -5 -8 -6 -17 -2 -14
5 -15 4 -6 -6 9 -9 15 -9 26 0 12 9 16 8 23 -6 4 -10 8 -25 9 -33 0 -8 6 -14
13 -13 9 2 12 -142 12 -589 0 -325 2 -594 5 -596 3 -3 5 264 5 594 l0 599 -38
45 c-105 125 -224 211 -362 261 -54 19 -87 23 -192 25 -70 1 -130 -1 -133 -4z
m-18 -18 c-3 -3 -12 -4 -19 -1 -8 3 -5 6 6 6 11 1 17 -2 13 -5z m-647 -454 c0
-5 -4 -10 -10 -10 -5 0 -10 5 -10 10 0 6 5 10 10 10 6 0 10 -4 10 -10z m-480
-480 c0 -5 -4 -10 -10 -10 -5 0 -10 5 -10 10 0 6 5 10 10 10 6 0 10 -4 10 -10z"/>
<path d="M8285 10543 c-11 -2 -27 -7 -35 -10 -8 -3 -21 -5 -28 -4 -22 4 -223
-99 -252 -129 -3 -3 -22 -18 -42 -33 -21 -15 -65 -55 -98 -87 -34 -33 -65 -60
-70 -60 -5 0 -18 -12 -30 -27 -27 -35 -199 -212 -628 -648 -184 -187 -377
-383 -428 -435 l-93 -95 34 -53 c18 -30 41 -62 49 -71 9 -10 13 -21 10 -24
-10 -9 16 -38 28 -31 5 3 8 0 7 -7 -2 -8 4 -28 14 -45 32 -60 69 -170 88 -259
l18 -90 -3 76 c-3 42 -9 85 -14 95 -22 43 -42 96 -42 111 0 8 -10 32 -22 52
-13 20 -28 49 -33 66 -6 16 -16 29 -23 28 -6 -2 -9 3 -6 11 3 8 -8 28 -25 45
-17 18 -31 35 -32 39 0 4 -2 17 -5 30 -2 13 0 21 5 18 4 -3 7 6 5 20 -3 32 79
116 104 107 10 -4 13 -2 8 6 -10 15 46 79 65 73 11 -3 12 -2 0 6 -10 7 -10 11
-1 17 7 4 16 2 21 -6 4 -7 11 -10 16 -6 4 5 1 12 -6 16 -10 7 24 46 127 149
77 77 143 137 147 134 4 -4 5 -2 3 3 -2 6 6 19 17 31 11 12 28 31 37 42 11 14
24 19 35 16 15 -5 16 -4 3 5 -13 9 -12 12 5 25 11 9 23 16 28 16 4 0 7 7 7 15
0 8 5 15 10 15 6 0 10 -5 10 -10 0 -6 6 -5 14 2 8 7 10 15 4 17 -5 2 7 21 28
42 20 21 41 36 46 33 4 -3 5 2 2 10 -6 16 10 23 19 9 2 -5 2 -3 1 4 -3 14 20
35 30 26 3 -4 15 3 26 14 12 14 15 23 8 25 -13 5 -2 28 13 28 6 0 7 -4 4 -10
-3 -5 -2 -10 2 -10 5 0 14 10 22 23 13 20 13 21 -2 8 -10 -8 -17 -9 -17 -3 0
6 16 24 36 39 20 15 41 34 48 42 6 7 32 35 58 61 25 27 43 51 40 55 -4 4 2 5
13 3 13 -2 20 3 20 12 0 15 13 30 28 30 5 0 5 -4 2 -10 -4 -6 1 -7 11 -3 11 4
13 8 6 11 -20 6 -14 25 6 20 11 -3 19 0 19 7 0 8 -7 11 -16 7 -14 -5 -14 -3
-2 11 7 9 20 17 28 17 8 0 22 14 31 30 11 19 22 28 32 24 8 -3 11 -2 8 1 -8 8
61 77 71 71 4 -3 22 4 40 15 33 20 59 18 31 -2 -13 -9 -13 -10 0 -6 10 3 15
16 14 40 -2 30 2 37 16 37 10 0 20 5 22 11 3 9 10 9 23 2 12 -7 28 -7 40 -2
19 9 19 9 -1 5 -12 -2 -28 1 -35 6 -12 7 -11 9 1 7 8 -1 23 -1 34 0 15 1 16 4
6 16 -10 13 -9 15 9 15 11 0 21 5 21 11 0 6 7 9 15 5 8 -3 15 -2 15 2 0 7 81
27 145 36 23 3 33 20 13 22 -7 1 -22 0 -33 -3z m-303 -165 c-6 -7 -25 -21 -44
-31 l-33 -19 35 31 c35 30 62 42 42 19z m-548 -533 c-7 -16 -24 -21 -24 -6 0
8 7 13 27 20 1 1 0 -6 -3 -14z m-816 -824 c-7 -11 -16 -18 -20 -15 -4 3 -2 11
5 19 18 21 29 18 15 -4z"/>
<path d="M8370 10538 c14 -6 53 -10 88 -10 34 1 60 -3 57 -7 -5 -10 102 -24
116 -16 5 4 9 1 9 -5 0 -6 4 -9 9 -6 5 4 20 2 33 -3 12 -5 27 -9 32 -9 5 0 12
-4 15 -9 3 -4 24 -16 45 -26 32 -15 37 -21 25 -28 -10 -8 -8 -8 10 -4 17 5 22
4 16 -5 -5 -8 -4 -11 3 -6 6 3 40 -23 76 -59 36 -37 66 -63 66 -59 0 14 42
-31 51 -54 5 -13 13 -21 17 -18 4 2 34 -22 65 -54 37 -38 53 -60 45 -64 -9 -4
-8 -5 2 -3 8 1 29 -12 45 -27 17 -16 25 -27 20 -23 -6 3 -11 -3 -11 -13 0 -15
3 -16 14 -8 10 9 20 4 44 -23 17 -19 31 -35 30 -36 -1 -2 -2 -9 -2 -15 0 -10
2 -10 8 0 10 15 28 -4 57 -60 20 -40 34 -45 15 -6 -10 21 -10 21 3 6 8 -10 20
-18 28 -18 11 0 11 -2 -1 -11 -13 -9 -12 -10 2 -5 10 3 20 1 23 -4 4 -6 10
-10 16 -10 5 0 -24 31 -63 69 -40 38 -143 140 -228 226 -261 265 -375 348
-535 389 -72 18 -284 30 -245 14z m187 -14 c-3 -3 -12 -4 -19 -1 -8 3 -5 6 6
6 11 1 17 -2 13 -5z m50 -10 c-3 -3 -12 -4 -19 -1 -8 3 -5 6 6 6 11 1 17 -2
13 -5z"/>
<path d="M12383 10537 l-43 -10 0 -1003 0 -1004 454 0 c499 0 495 0 551 -62
31 -34 38 -59 39 -140 1 -27 4 -48 8 -48 5 0 8 8 8 19 0 10 8 25 17 32 14 12
16 12 11 -1 -3 -8 -2 -24 3 -35 7 -18 8 -17 8 6 1 15 -6 42 -14 60 -15 32 -16
32 -12 7 2 -16 0 -28 -4 -28 -5 0 -9 11 -9 24 0 13 -3 32 -7 42 -5 12 -3 15 6
9 18 -10 -2 27 -23 44 -8 7 -12 19 -9 27 4 10 1 14 -8 13 -21 -4 -84 38 -67
44 19 8 -11 8 -470 7 -227 -1 -419 -3 -427 -7 -11 -3 -15 2 -16 18 l-1 24 -8
-25 c-7 -21 -15 -12 -11 13 5 32 0 1920 -5 1929 -5 8 -2 9 9 5 10 -3 17 -2 17
2 0 5 -6 11 -12 14 -7 3 2 5 20 4 18 0 38 5 43 10 13 13 175 5 203 -9 13 -7
16 -7 12 1 -4 7 1 11 13 11 12 0 21 -5 21 -10 0 -7 15 -9 39 -5 22 3 42 1 46
-4 3 -6 13 -7 22 -4 12 5 14 3 8 -7 -5 -9 -4 -11 4 -6 17 11 103 -33 94 -47
-4 -7 -8 -16 -9 -22 -2 -13 54 -17 61 -4 4 5 11 6 17 3 6 -4 5 -10 -3 -16 -10
-6 -7 -7 9 -3 13 4 22 2 22 -4 0 -6 -4 -11 -10 -11 -5 0 -10 -3 -10 -8 0 -11
72 -47 88 -44 8 2 11 -1 7 -7 -3 -6 -1 -11 4 -11 18 0 48 -35 43 -50 -3 -9 1
-11 13 -6 15 5 16 4 6 -8 -10 -12 -9 -13 8 -9 12 3 21 1 21 -6 0 -6 -4 -11
-10 -11 -5 0 -10 -5 -10 -11 0 -8 4 -8 14 0 12 10 18 7 32 -14 9 -14 19 -23
22 -21 8 9 66 -56 67 -75 1 -11 5 -22 10 -26 4 -5 5 3 2 17 -5 21 0 18 33 -19
21 -25 36 -49 33 -54 -3 -5 0 -8 7 -5 13 4 182 -153 173 -162 -2 -2 -8 2 -12
9 -6 8 -11 9 -15 3 -3 -6 3 -13 14 -17 12 -4 20 -15 20 -28 0 -18 2 -19 10 -7
9 13 14 11 31 -10 12 -14 25 -25 30 -25 15 0 65 -62 61 -76 -3 -11 -1 -11 5
-1 7 9 18 2 43 -25 18 -21 34 -46 35 -55 1 -10 5 -21 10 -25 4 -5 4 3 0 17 -8
25 -8 25 14 6 15 -13 18 -23 11 -30 -15 -15 -12 -30 4 -17 11 9 18 6 35 -15
12 -15 21 -23 21 -18 0 4 15 -7 34 -26 18 -19 31 -41 28 -48 -3 -8 1 -12 10
-10 15 3 90 -66 137 -127 12 -16 26 -30 30 -30 4 0 24 -18 46 -40 22 -21 35
-36 28 -32 -6 4 -15 2 -19 -4 -5 -8 -1 -10 14 -7 16 5 29 -4 55 -38 19 -24 36
-41 39 -39 3 3 11 -2 19 -11 11 -13 11 -18 2 -21 -7 -3 -13 -9 -13 -15 0 -7 5
-6 14 1 11 9 18 6 35 -15 12 -15 21 -23 21 -19 0 4 25 -19 56 -51 31 -32 52
-60 45 -62 -6 -2 -11 -8 -11 -14 0 -7 5 -6 14 1 11 10 18 7 30 -11 9 -13 22
-23 29 -23 6 0 18 -12 25 -27 7 -16 20 -28 28 -28 13 0 19 -12 15 -33 -1 -5 3
-6 8 -3 4 3 21 -12 36 -34 15 -22 32 -40 38 -40 6 0 8 -3 4 -6 -3 -3 5 -24 19
-45 13 -21 21 -39 17 -39 -5 0 -3 -4 2 -8 6 -4 17 -20 25 -37 8 -16 19 -33 25
-37 6 -5 6 -8 -2 -8 -8 0 -7 -9 4 -31 18 -36 25 -85 26 -193 1 -49 -3 -81 -9
-83 -6 -2 -9 -15 -6 -28 2 -14 1 -33 -3 -42 -4 -10 -8 -35 -8 -55 -1 -22 -7
-40 -15 -43 -7 -3 -12 -13 -11 -22 4 -26 -11 -64 -22 -58 -9 6 -13 -15 -10
-44 2 -7 -2 -10 -8 -6 -6 3 -11 14 -12 23 0 10 -3 12 -5 5 -3 -7 0 -21 6 -32
7 -14 7 -21 0 -22 -5 -1 -14 -3 -20 -4 -5 -1 -15 -3 -21 -4 -6 0 -9 -8 -6 -15
4 -10 1 -13 -7 -10 -8 3 -12 -3 -12 -18 1 -16 -4 -23 -16 -22 -11 1 -15 -4
-10 -15 5 -14 4 -14 -14 -1 -15 11 -16 11 -6 0 18 -20 15 -35 -4 -19 -15 12
-16 11 -9 -10 5 -16 4 -21 -4 -17 -6 4 -11 0 -11 -11 -1 -17 -1 -17 -11 -1 -7
12 -6 24 2 39 6 12 7 19 1 15 -6 -3 -15 -20 -21 -36 -6 -18 -6 -28 -1 -25 6 4
10 2 10 -3 0 -17 -13 -22 -29 -9 -14 11 -14 10 -2 -6 8 -9 11 -21 7 -24 -4 -4
-11 -1 -15 6 -7 11 -10 11 -14 0 -5 -12 -8 -11 -17 1 -10 12 -11 12 -5 -5 4
-11 9 -25 11 -30 5 -12 -86 -92 -99 -87 -4 1 -7 -6 -5 -15 2 -11 -3 -18 -12
-18 -8 0 -21 -12 -29 -27 -7 -15 -18 -26 -24 -25 -6 1 -11 -3 -12 -10 0 -6 -4
-15 -9 -20 -5 -5 -6 -2 -1 6 5 9 3 12 -6 9 -8 -3 -13 -11 -11 -17 1 -7 -12
-24 -29 -39 -17 -15 -45 -42 -62 -60 -17 -18 -36 -30 -43 -28 -9 3 -11 -1 -7
-11 4 -10 2 -14 -5 -9 -6 3 -26 -9 -45 -29 l-34 -35 -529 5 c-291 3 -544 8
-561 11 -19 4 -33 2 -33 -3 0 -19 107 -23 614 -23 498 0 509 0 542 21 19 11
34 27 34 35 0 9 4 13 10 9 25 -15 561 528 616 626 30 52 64 144 71 193 12 80
15 266 4 266 -6 0 -11 7 -11 16 0 8 5 12 10 9 14 -8 13 -8 -14 76 -30 90 -61
151 -71 141 -5 -4 -5 1 -2 10 4 11 0 21 -11 27 -9 6 -13 11 -9 11 8 0 -27 49
-88 120 -16 19 -371 378 -790 796 -580 582 -777 772 -830 806 -68 44 -179 88
-220 87 -11 0 -56 5 -100 10 -100 12 -197 12 -252 -2z m552 -96 c8 -14 -10
-22 -30 -15 -13 5 -14 8 -3 15 17 11 26 11 33 0z m90 -67 c14 -9 25 -21 25
-26 0 -5 -7 -2 -16 6 -8 9 -22 16 -30 16 -8 0 -14 5 -14 10 0 14 7 13 35 -6z
m202 -1840 c-3 -3 -12 -4 -19 -1 -8 3 -5 6 6 6 11 1 17 -2 13 -5z"/>
<path d="M12568 10513 c6 -2 18 -2 25 0 6 3 1 5 -13 5 -14 0 -19 -2 -12 -5z"/>
<path d="M4123 10493 c9 -2 23 -2 30 0 6 3 -1 5 -18 5 -16 0 -22 -2 -12 -5z"/>
<path d="M4610 10430 c0 -5 5 -10 11 -10 5 0 7 5 4 10 -3 6 -8 10 -11 10 -2 0
-4 -4 -4 -10z"/>
<path d="M8146 10425 c-3 -8 -1 -15 4 -15 6 0 10 7 10 15 0 8 -2 15 -4 15 -2
0 -6 -7 -10 -15z"/>
<path d="M8820 10383 c0 -4 5 -15 10 -23 8 -13 10 -13 10 2 0 9 -4 20 -10 23
-5 3 -10 3 -10 -2z"/>
<path d="M8861 10344 c0 -11 3 -14 6 -6 3 7 2 16 -1 19 -3 4 -6 -2 -5 -13z"/>
<path d="M8880 10340 c0 -5 5 -10 11 -10 5 0 7 5 4 10 -3 6 -8 10 -11 10 -2 0
-4 -4 -4 -10z"/>
<path d="M12980 10340 c8 -5 20 -10 25 -10 6 0 3 5 -5 10 -8 5 -19 10 -25 10
-5 0 -3 -5 5 -10z"/>
<path d="M7900 10291 c0 -5 5 -13 10 -16 6 -3 10 -2 10 4 0 5 -4 13 -10 16 -5
3 -10 2 -10 -4z"/>
<path d="M11921 10211 c-11 -7 -12 -13 -4 -23 8 -9 10 -347 7 -1150 -2 -747 0
-1138 6 -1138 13 0 13 -81 0 -117 -10 -27 -9 -27 6 -8 14 19 15 15 10 -45 -4
-48 -3 -56 3 -31 5 20 5 138 -1 285 -6 150 -8 651 -4 1244 3 545 2 992 -2 992
-4 0 -13 -4 -21 -9z"/>
<path d="M9040 10201 c0 -5 5 -13 10 -16 6 -3 10 -2 10 4 0 5 -4 13 -10 16 -5
3 -10 2 -10 -4z"/>
<path d="M13160 10190 c0 -5 5 -10 10 -10 6 0 10 5 10 10 0 6 -4 10 -10 10 -5
0 -10 -4 -10 -10z"/>
<path d="M11868 10166 c-107 -91 -168 -151 -168 -163 0 -8 5 -11 10 -8 6 4 7
11 4 17 -5 7 -1 9 9 5 9 -3 16 -2 14 3 -2 8 70 80 80 80 2 0 1 -9 -2 -20 -4
-12 -2 -20 5 -20 8 0 10 10 8 25 -4 20 2 31 31 52 20 16 39 28 44 28 10 0 10
19 0 22 -4 2 -20 -8 -35 -21z"/>
<path d="M13130 10180 c0 -5 5 -10 11 -10 5 0 7 5 4 10 -3 6 -8 10 -11 10 -2
0 -4 -4 -4 -10z"/>
<path d="M13220 10140 c0 -5 5 -10 11 -10 5 0 7 5 4 10 -3 6 -8 10 -11 10 -2
0 -4 -4 -4 -10z"/>
<path d="M3565 10119 c-4 -6 -5 -12 -2 -15 2 -3 7 2 10 11 7 17 1 20 -8 4z"/>
<path d="M7742 10114 c-7 -8 -8 -14 -3 -14 10 0 25 19 20 25 -2 1 -10 -3 -17
-11z"/>
<path d="M13210 10105 c0 -8 4 -15 10 -15 5 0 7 7 4 15 -4 8 -8 15 -10 15 -2
0 -4 -7 -4 -15z"/>
<path d="M11785 10050 c-3 -5 -1 -10 4 -10 6 0 11 5 11 10 0 6 -2 10 -4 10 -3
0 -8 -4 -11 -10z"/>
<path d="M11756 10031 c-3 -5 3 -11 15 -14 16 -4 18 -3 8 9 -13 16 -16 17 -23
5z"/>
<path d="M13320 10030 c0 -5 5 -10 10 -10 6 0 10 5 10 10 0 6 -4 10 -10 10 -5
0 -10 -4 -10 -10z"/>
<path d="M11382 9705 c-158 -157 -295 -296 -305 -310 -17 -24 -17 -24 10 -21
20 1 28 7 26 20 -1 21 36 62 54 58 6 -1 14 2 18 8 4 6 -1 7 -12 4 -10 -3 0 11
22 33 27 26 48 38 63 37 13 -1 21 0 19 3 -7 6 30 78 47 93 10 8 15 7 20 -5 3
-8 11 -15 18 -14 10 0 10 2 0 6 -6 2 -10 9 -6 14 3 5 0 9 -7 9 -6 0 1 12 17
28 20 19 38 27 59 25 17 -1 24 1 17 4 -6 2 -9 10 -5 16 4 7 -1 6 -10 -2 -10
-8 -20 -12 -22 -9 -8 7 73 76 81 69 4 -3 4 -1 1 5 -4 7 1 18 10 25 15 12 16
12 10 -4 -4 -11 -3 -16 4 -12 6 4 8 13 5 21 -3 8 1 14 8 14 8 0 16 8 19 19 3
13 12 18 30 16 21 -3 25 1 22 21 -1 15 3 24 11 24 8 0 14 5 14 11 0 11 24 39
34 39 3 0 5 -3 5 -7 -5 -32 14 -46 24 -19 4 11 1 13 -11 9 -15 -6 -16 -5 -2
12 11 14 12 17 1 11 -9 -6 -12 -5 -9 5 3 8 11 13 17 12 6 -2 11 2 11 7 0 6 -5
10 -11 10 -6 0 -139 -128 -297 -285z m203 166 c-3 -6 -11 -11 -17 -11 -6 0 -6
6 2 15 14 17 26 13 15 -4z m-315 -311 c-6 -11 -16 -20 -22 -20 -6 0 -3 9 7 20
10 11 20 20 22 20 2 0 -1 -9 -7 -20z m-160 -170 c0 -5 -4 -10 -10 -10 -5 0
-10 5 -10 10 0 6 5 10 10 10 6 0 10 -4 10 -10z"/>
<path d="M13366 9947 c3 -10 9 -15 12 -12 3 3 0 11 -7 18 -10 9 -11 8 -5 -6z"/>
<path d="M13400 9950 c0 -5 5 -10 11 -10 5 0 7 5 4 10 -3 6 -8 10 -11 10 -2 0
-4 -4 -4 -10z"/>
<path d="M13430 9954 c1 -15 28 -46 33 -37 2 4 -4 17 -14 27 -11 11 -19 15
-19 10z"/>
<path d="M9440 9823 c0 -13 50 -56 57 -49 4 3 -4 17 -17 31 -23 25 -40 32 -40
18z"/>
<path d="M5300 9604 c0 -139 3 -204 10 -199 5 3 10 1 10 -4 0 -6 -3 -11 -8
-11 -4 0 -7 -336 -7 -747 0 -837 -3 -880 -69 -1064 -49 -134 -59 -159 -69
-159 -4 0 -3 -9 3 -20 6 -11 8 -26 4 -32 -5 -7 -3 -8 5 -4 7 5 10 15 6 24 -7
18 13 82 25 82 5 0 11 13 15 30 4 16 11 33 17 36 7 5 8 2 3 -7 -5 -8 -4 -11 1
-6 5 5 10 13 10 18 1 5 2 14 3 20 0 5 5 7 11 4 6 -4 7 2 1 17 -4 13 -5 32 0
43 4 11 8 32 8 46 1 14 8 40 17 57 8 18 12 37 8 43 -4 7 -3 9 4 6 7 -5 9 21 5
85 -4 86 -4 91 11 73 15 -19 15 -18 5 13 -6 18 -9 41 -6 52 3 11 1 18 -4 14
-5 -3 -9 13 -9 35 0 27 4 40 12 39 6 -2 13 6 15 17 l3 20 -10 -20 c-6 -13 -8
195 -7 585 1 333 0 549 -3 480 l-6 -125 -2 163 c-1 99 2 162 8 162 5 0 8 31 5
78 -15 258 -15 322 0 322 11 0 15 -12 16 -42 2 -30 3 -35 6 -15 2 15 8 27 12
27 14 0 41 -36 34 -45 -5 -4 -3 -5 3 -2 7 4 15 -3 18 -16 7 -21 7 -21 16 -2 8
19 10 17 14 -12 2 -16 54 -55 60 -45 7 11 -68 85 -77 76 -4 -4 -7 0 -7 10 0 9
-4 14 -10 11 -5 -3 -10 1 -10 9 0 9 -7 16 -15 16 -9 0 -18 6 -21 13 -3 8 -18
24 -34 35 l-29 22 -1 -206z m180 41 c13 -14 21 -25 18 -25 -2 0 -15 11 -28 25
-13 14 -21 25 -18 25 2 0 15 -11 28 -25z m-228 -2077 c-7 -7 -12 -8 -12 -2 0
14 12 26 19 19 2 -3 -1 -11 -7 -17z"/>
<path d="M7410 9791 c0 -5 7 -12 16 -15 14 -5 15 -4 4 9 -14 17 -20 19 -20 6z"/>
<path d="M13560 9790 c0 -5 5 -10 11 -10 5 0 7 5 4 10 -3 6 -8 10 -11 10 -2 0
-4 -4 -4 -10z"/>
<path d="M9517 9764 c7 -3 10 -11 7 -19 -3 -7 0 -16 5 -20 6 -3 8 -11 5 -17
-4 -6 2 -6 15 1 17 10 20 9 14 -5 -4 -11 -1 -15 13 -12 12 2 20 -4 22 -17 4
-18 42 -64 42 -50 0 3 9 -4 20 -15 11 -11 20 -23 20 -28 0 -10 40 -44 40 -34
0 4 5 0 10 -8 5 -8 10 -10 10 -5 -1 18 -29 47 -40 40 -6 -3 -9 -2 -8 3 4 13
-162 192 -176 191 -7 0 -7 -2 1 -5z"/>
<path d="M13620 9742 c0 -7 5 -12 10 -12 6 0 10 -7 10 -15 0 -8 5 -15 10 -15
16 0 12 15 -10 35 -11 10 -20 13 -20 7z"/>
<path d="M3165 9710 c3 -5 8 -10 11 -10 2 0 4 5 4 10 0 6 -5 10 -11 10 -5 0
-7 -4 -4 -10z"/>
<path d="M13606 9705 c4 -8 8 -15 10 -15 2 0 4 7 4 15 0 8 -4 15 -10 15 -5 0
-7 -7 -4 -15z"/>
<path d="M7345 9700 c-3 -5 -1 -10 4 -10 6 0 11 5 11 10 0 6 -2 10 -4 10 -3 0
-8 -4 -11 -10z"/>
<path d="M13690 9679 c0 -5 5 -7 10 -4 6 3 10 8 10 11 0 2 -4 4 -10 4 -5 0
-10 -5 -10 -11z"/>
<path d="M3085 9630 c3 -5 8 -10 11 -10 2 0 4 5 4 10 0 6 -5 10 -11 10 -5 0
-7 -4 -4 -10z"/>
<path d="M7230 9630 c0 -5 5 -10 10 -10 6 0 10 5 10 10 0 6 -4 10 -10 10 -5 0
-10 -4 -10 -10z"/>
<path d="M11320 9611 c0 -6 5 -13 10 -16 6 -3 10 1 10 9 0 9 -4 16 -10 16 -5
0 -10 -4 -10 -9z"/>
<path d="M5521 9590 c7 -14 12 -31 11 -37 -2 -7 2 -14 8 -14 5 -1 13 -2 18 -3
4 -1 21 -14 37 -30 17 -16 24 -26 18 -22 -8 5 -11 2 -7 -7 3 -8 13 -14 22 -13
10 0 23 -14 33 -35 10 -19 26 -42 36 -50 17 -13 17 -12 -1 16 -14 23 -6 18 33
-20 48 -47 66 -75 39 -59 -8 4 -9 3 -5 -2 5 -5 14 -9 20 -10 37 -4 65 -22 55
-36 -6 -11 26 -49 38 -44 8 3 14 1 14 -4 0 -6 7 -10 15 -10 16 0 34 -29 28
-47 -2 -6 1 -14 6 -18 7 -4 8 1 4 12 -6 16 -5 16 10 4 9 -7 14 -17 11 -22 -3
-5 1 -6 9 -3 17 6 41 -21 32 -35 -3 -7 0 -8 9 -5 21 8 20 -5 -1 -23 -16 -13
-16 -13 4 -4 16 8 22 7 27 -4 3 -8 12 -15 21 -15 13 0 20 -19 16 -43 -1 -5 3
-6 8 -3 5 4 17 -1 26 -10 13 -14 14 -19 3 -25 -9 -6 -9 -9 -1 -9 6 0 15 5 18
10 10 15 36 -8 33 -29 -2 -9 3 -15 10 -14 14 3 16 -23 2 -30 -6 -3 -5 -4 2 -3
7 2 21 -1 31 -6 17 -9 17 -8 3 19 -17 32 -406 422 -406 408 -1 -6 -7 1 -15 15
-8 14 -14 22 -15 19 0 -4 -61 55 -136 130 -75 75 -130 125 -123 111z m349
-345 c7 -9 8 -15 2 -15 -5 0 -12 7 -16 15 -3 8 -4 15 -2 15 2 0 9 -7 16 -15z"/>
<path d="M7190 9591 c0 -5 5 -13 10 -16 6 -3 10 -2 10 4 0 5 -4 13 -10 16 -5
3 -10 2 -10 -4z"/>
<path d="M13770 9545 c0 -8 4 -15 10 -15 5 0 7 7 4 15 -4 8 -8 15 -10 15 -2 0
-4 -7 -4 -15z"/>
<path d="M13800 9550 c0 -5 5 -10 10 -10 6 0 10 5 10 10 0 6 -4 10 -10 10 -5
0 -10 -4 -10 -10z"/>
<path d="M9758 9523 c6 -2 9 -9 6 -15 -3 -5 15 -29 40 -53 30 -27 44 -48 40
-58 -3 -8 -1 -18 5 -22 7 -3 8 0 5 9 -3 9 -1 16 5 16 6 0 11 -5 11 -11 0 -5 5
-7 10 -4 6 3 10 1 10 -6 0 -7 3 -10 6 -7 10 10 -20 48 -34 43 -7 -3 -10 0 -7
5 7 11 -82 110 -99 109 -7 0 -6 -3 2 -6z m48 -45 l29 -33 -32 29 c-31 28 -38
36 -30 36 2 0 16 -15 33 -32z"/>
<path d="M13860 9500 c0 -5 5 -10 11 -10 5 0 7 5 4 10 -3 6 -8 10 -11 10 -2 0
-4 -4 -4 -10z"/>
<path d="M13850 9460 c0 -5 5 -10 11 -10 5 0 7 5 4 10 -3 6 -8 10 -11 10 -2 0
-4 -4 -4 -10z"/>
<path d="M13940 9419 c0 -5 5 -7 10 -4 6 3 10 8 10 11 0 2 -4 4 -10 4 -5 0
-10 -5 -10 -11z"/>
<path d="M7005 9399 c-4 -6 -5 -12 -2 -15 2 -3 7 2 10 11 7 17 1 20 -8 4z"/>
<path d="M13960 9390 c0 -5 5 -10 10 -10 6 0 10 5 10 10 0 6 -4 10 -10 10 -5
0 -10 -4 -10 -10z"/>
<path d="M9917 9364 c7 -3 10 -11 7 -18 -5 -13 22 -42 46 -48 23 -5 38 -22 32
-37 -4 -10 -1 -13 11 -8 11 4 14 2 10 -9 -4 -11 0 -15 13 -12 12 2 18 -2 16
-10 -1 -8 2 -11 8 -7 5 3 13 -2 17 -12 3 -10 13 -26 21 -35 13 -15 13 -18 1
-18 -12 0 -12 -2 1 -9 8 -6 18 -7 22 -5 4 3 13 -7 18 -22 6 -15 13 -24 16 -21
6 6 54 -45 54 -57 0 -11 34 -45 41 -41 4 3 13 -3 20 -12 12 -15 12 -16 -3 -10
-12 4 -15 2 -11 -9 3 -10 9 -12 15 -6 6 6 19 0 34 -15 29 -29 23 -44 -9 -24
-20 13 -21 13 -9 -1 7 -9 27 -22 44 -29 43 -17 83 -55 66 -62 -7 -3 -3 -6 9
-6 27 -1 40 -20 22 -32 -7 -4 -10 -11 -6 -16 5 -4 12 -1 16 6 6 9 11 10 15 2
4 -6 2 -11 -3 -11 -6 0 -11 -5 -11 -11 0 -6 6 -9 14 -6 14 6 44 -20 39 -32 -6
-15 10 -42 22 -37 20 7 48 -30 48 -65 0 -21 3 -26 10 -17 6 9 7 6 4 -9 -3 -12
1 -30 8 -40 7 -9 11 -24 8 -33 -4 -13 -4 -13 6 0 9 12 11 13 11 1 0 -8 2 -12
5 -9 9 9 -6 58 -16 52 -5 -3 -6 1 -3 9 3 8 -5 34 -17 58 -35 69 -71 113 -222
274 -36 39 -75 82 -87 98 -12 15 -28 27 -36 27 -8 0 -14 5 -14 11 0 24 -284
329 -305 328 -5 0 -5 -3 2 -5z m593 -649 c7 -9 8 -15 2 -15 -5 0 -12 7 -16 15
-3 8 -4 15 -2 15 2 0 9 -7 16 -15z"/>
<path d="M11041 9365 c-1 -5 -19 -28 -41 -50 -42 -43 -48 -55 -26 -55 7 0 16
10 19 22 6 21 7 21 27 3 11 -10 20 -13 20 -7 0 7 -5 12 -11 12 -8 0 -7 6 2 17
10 11 10 14 2 9 -7 -4 -13 -3 -13 3 0 5 7 14 16 19 9 5 14 15 11 23 -3 8 -6
10 -6 4z"/>
<path d="M14020 9344 c0 -8 5 -12 10 -9 6 4 8 11 5 16 -9 14 -15 11 -15 -7z"/>
<path d="M14040 9310 c0 -5 5 -10 10 -10 6 0 10 5 10 10 0 6 -4 10 -10 10 -5
0 -10 -4 -10 -10z"/>
<path d="M14010 9300 c0 -5 5 -10 11 -10 5 0 7 5 4 10 -3 6 -8 10 -11 10 -2 0
-4 -4 -4 -10z"/>
<path d="M10940 9264 c0 -6 -21 -31 -47 -57 -44 -44 -46 -48 -33 -72 7 -14 15
-23 17 -21 3 2 0 13 -6 24 -8 16 -5 24 17 44 15 13 35 35 45 48 15 20 17 21
12 5 -5 -15 -3 -17 5 -8 9 8 9 16 1 30 -6 10 -11 13 -11 7z"/>
<path d="M2685 9230 c3 -5 8 -10 11 -10 2 0 4 5 4 10 0 6 -5 10 -11 10 -5 0
-7 -4 -4 -10z"/>
<path d="M14172 9174 c-7 -8 -8 -14 -3 -14 10 0 25 19 20 25 -2 1 -10 -3 -17
-11z"/>
<path d="M2605 9159 c-4 -6 -5 -12 -2 -15 2 -3 7 2 10 11 7 17 1 20 -8 4z"/>
<path d="M14170 9140 c0 -5 5 -10 11 -10 5 0 7 5 4 10 -3 6 -8 10 -11 10 -2 0
-4 -4 -4 -10z"/>
<path d="M10777 9079 l-56 -61 41 -66 c92 -149 169 -351 190 -499 7 -46 17
-83 23 -83 5 0 3 -5 -5 -10 -13 -8 -13 -13 -2 -30 8 -14 10 -26 4 -33 -12 -15
-14 -77 -2 -77 38 0 15 232 -37 368 -4 10 -2 13 6 8 9 -6 10 0 5 21 -4 15 -10
30 -13 33 -15 12 -31 52 -25 61 3 6 -4 20 -15 31 -15 13 -20 26 -16 41 5 18 4
19 -5 7 -10 -13 -11 -12 -7 5 3 11 7 27 9 35 3 8 3 11 0 6 -3 -5 -11 4 -18 20
-14 28 -13 11 0 -31 4 -11 -1 -4 -11 15 -10 19 -22 38 -28 42 -6 5 -6 8 2 8 7
0 1 12 -13 26 -18 17 -24 32 -21 46 3 11 -1 31 -9 44 -15 23 -12 44 6 44 5 0
7 -8 3 -17 -3 -10 -3 -15 1 -11 4 3 8 12 10 20 1 7 5 19 9 26 5 6 6 15 4 20
-6 10 30 42 39 34 4 -4 4 -1 0 6 -4 6 -9 12 -11 12 -2 0 -28 -27 -58 -61z m18
-8 c-3 -6 -11 -11 -17 -11 -6 0 -6 6 2 15 14 17 26 13 15 -4z m-35 -65 c0 -8
6 -16 13 -19 6 -2 9 -8 4 -12 -4 -5 -14 0 -22 11 -17 23 -19 34 -5 34 6 0 10
-6 10 -14z m167 -388 c-3 -8 -6 -5 -6 6 -1 11 2 17 5 13 3 -3 4 -12 1 -19z"/>
<path d="M10838 9103 c-10 -2 -18 -9 -18 -14 0 -14 16 -11 30 6 7 8 11 14 9
14 -2 -1 -12 -3 -21 -6z"/>
<path d="M6680 9071 c0 -5 -8 -12 -17 -14 -14 -4 -12 -5 5 -6 13 -1 22 5 22
14 0 8 -2 15 -5 15 -3 0 -5 -4 -5 -9z"/>
<path d="M14280 9070 c0 -5 5 -10 10 -10 6 0 10 5 10 10 0 6 -4 10 -10 10 -5
0 -10 -4 -10 -10z"/>
<path d="M14250 9060 c0 -5 5 -10 11 -10 5 0 7 5 4 10 -3 6 -8 10 -11 10 -2 0
-4 -4 -4 -10z"/>
<path d="M14340 9020 c0 -5 5 -10 11 -10 5 0 7 5 4 10 -3 6 -8 10 -11 10 -2 0
-4 -4 -4 -10z"/>
<path d="M4890 9005 c-2 -5 -4 -17 -4 -25 -1 -8 -8 -14 -16 -12 -7 2 -17 -3
-21 -10 -8 -13 -19 -13 -469 -9 -161 2 -249 -4 -263 -18 -8 -8 -5 -11 12 -11
12 0 19 4 16 10 -3 6 -1 10 4 10 6 0 11 -5 11 -11 0 -5 4 -7 10 -4 5 3 35 6
67 6 32 1 61 6 66 13 4 7 10 8 15 1 4 -6 75 -12 172 -13 91 -2 190 -4 220 -5
121 -5 199 24 187 69 -3 11 -6 15 -7 9z"/>
<path d="M14390 8995 c0 -5 5 -17 10 -25 5 -8 10 -10 10 -5 0 6 -5 17 -10 25
-5 8 -10 11 -10 5z"/>
<path d="M8118 8953 c7 -3 16 -2 19 1 4 3 -2 6 -13 5 -11 0 -14 -3 -6 -6z"/>
<path d="M8306 8951 c-2 -3 -30 -5 -63 -5 -42 1 -52 -1 -38 -7 15 -7 11 -8
-15 -4 -22 3 -30 2 -21 -4 9 -6 -5 -11 -42 -15 -31 -4 -61 -13 -67 -21 -6 -7
-21 -11 -33 -8 -18 4 -19 3 -7 -7 12 -9 10 -10 -13 -5 -17 3 -26 2 -23 -3 6
-11 -52 -38 -71 -34 -7 2 -13 -3 -13 -10 0 -7 -9 -19 -21 -26 -17 -11 -24 -11
-37 0 -15 12 -16 11 -3 -4 11 -15 11 -18 -1 -18 -8 0 -25 -11 -38 -25 -18 -19
-26 -22 -33 -13 -6 9 -7 8 -3 -4 3 -10 1 -20 -4 -23 -6 -4 -10 -1 -10 4 0 6
-5 11 -11 11 -6 0 -9 -6 -6 -14 7 -19 -28 -50 -45 -40 -7 4 -10 4 -6 -1 10
-10 -10 -45 -25 -45 -7 0 -18 -9 -25 -20 -7 -12 -17 -18 -23 -14 -6 3 -10 0
-8 -7 4 -32 -1 -43 -13 -31 -9 9 -17 7 -37 -11 -23 -21 -24 -21 -17 -2 5 15 4
17 -5 8 -13 -13 -3 -36 13 -27 6 4 8 1 6 -7 -3 -8 -12 -13 -19 -11 -11 3 -11
1 -2 -9 6 -6 9 -18 6 -26 -5 -12 -7 -12 -14 -1 -6 9 -9 7 -9 -9 0 -13 -5 -23
-11 -23 -7 0 -9 -9 -6 -21 3 -12 0 -22 -9 -26 -8 -3 -14 -12 -14 -20 0 -8 -5
-11 -10 -8 -7 4 -9 -3 -5 -22 5 -23 4 -25 -5 -13 -10 13 -11 13 -6 -2 9 -28
-4 -51 -20 -37 -11 9 -12 5 -5 -18 4 -15 5 -37 0 -48 l-8 -20 -1 20 c-4 33
-17 -34 -19 -90 -1 -37 -4 -46 -11 -35 -9 14 -8 -9 5 -73 3 -13 -1 -17 -12
-13 -12 5 -13 4 -5 -7 7 -8 13 -72 16 -159 2 -80 9 -154 15 -166 6 -11 11 -39
11 -61 0 -22 5 -43 11 -47 6 -3 9 -15 6 -25 -3 -11 -2 -17 2 -15 3 2 22 -32
41 -77 19 -45 43 -90 53 -100 10 -10 16 -25 13 -33 -3 -9 -1 -12 4 -9 6 3 10
-1 10 -10 0 -9 4 -13 10 -10 5 3 17 -10 27 -30 11 -24 19 -31 25 -23 6 10 8 8
9 -4 1 -10 3 -22 4 -28 1 -5 3 -18 5 -27 1 -11 5 -7 11 12 8 29 0 44 -56 100
-54 54 -141 235 -158 328 -6 34 -13 64 -16 67 -7 6 -8 32 -11 250 -2 191 21
304 90 431 11 20 17 38 15 41 -3 3 4 13 15 23 11 10 20 24 20 31 0 7 3 14 8
16 4 2 25 26 47 53 76 97 186 195 290 259 81 49 249 114 319 122 32 4 53 10
47 14 -15 9 137 3 269 -11 216 -22 392 -89 527 -201 42 -35 82 -70 89 -78 7
-8 36 -43 65 -78 39 -46 55 -59 62 -50 6 9 7 8 3 -5 -5 -15 21 -65 53 -103 6
-7 7 -15 4 -18 -4 -3 -1 -6 4 -6 6 0 14 6 16 13 3 6 6 2 6 -11 1 -13 -3 -21
-8 -18 -5 4 -1 -11 9 -31 10 -21 26 -63 35 -93 9 -30 21 -66 27 -80 6 -14 12
-38 13 -55 1 -16 5 -64 9 -105 14 -144 -21 -345 -87 -495 -35 -79 -115 -213
-147 -247 -12 -13 -33 -37 -47 -55 -14 -18 -57 -58 -96 -90 -40 -32 -75 -62
-79 -68 -11 -14 -10 -25 2 -25 6 0 10 7 10 15 0 8 5 15 10 15 6 0 10 -5 10
-11 0 -5 5 -7 11 -3 8 5 8 9 -1 14 -9 5 -9 9 -1 14 6 4 15 5 19 2 12 -7 38 12
29 21 -5 4 -13 1 -18 -7 -9 -13 -10 -13 -6 0 2 9 14 14 26 13 13 -2 20 1 16 7
-8 12 12 40 27 40 6 0 4 -8 -3 -17 -12 -14 -10 -14 14 1 29 20 36 32 12 22
-22 -8 -19 -3 21 40 32 36 34 37 20 9 -20 -38 -20 -51 0 -59 21 -8 24 -8 24 5
0 5 -4 8 -9 4 -20 -12 -21 15 -1 49 11 20 21 39 22 44 2 4 11 6 22 4 14 -2 16
1 8 11 -8 9 -1 29 27 77 21 36 43 64 49 63 5 -1 8 7 5 20 -4 18 -3 19 7 7 9
-12 10 -11 5 8 -4 15 -1 24 10 28 9 4 14 13 11 20 -3 7 1 20 9 28 8 8 15 23
15 34 0 10 11 41 25 68 14 28 22 57 19 68 -3 10 -2 16 2 13 5 -3 10 29 12 72
2 42 7 93 12 114 5 24 3 78 -4 140 -7 56 -14 113 -15 127 0 14 -3 36 -4 50 -2
14 -5 34 -6 45 -1 17 -3 18 -11 5 -8 -13 -10 -12 -10 3 0 9 4 17 9 17 11 0 2
38 -11 46 -6 4 -8 -2 -3 -15 10 -31 -2 -25 -21 10 -14 27 -14 31 -1 26 11 -4
13 0 10 14 -3 10 -9 19 -13 19 -4 0 -10 15 -14 33 -5 23 -9 28 -15 18 -6 -9
-11 -10 -15 -2 -4 6 -4 16 0 23 4 7 3 8 -4 4 -7 -4 -12 -1 -12 8 0 8 -6 17
-12 19 -10 4 -9 8 2 17 13 10 13 11 -2 6 -13 -4 -18 0 -18 12 0 10 -7 27 -15
38 -13 16 -14 16 -9 2 3 -10 1 -18 -5 -18 -6 0 -11 4 -11 10 0 5 -17 28 -37
50 -21 23 -39 45 -39 50 -1 6 -2 15 -3 21 0 5 -16 16 -34 24 -19 8 -40 22 -48
32 -13 17 -13 17 7 1 11 -10 25 -18 30 -18 5 1 -2 9 -15 20 -12 11 -27 17 -32
14 -14 -8 -41 17 -35 31 3 8 -2 11 -15 8 -10 -3 -19 0 -19 6 0 6 -12 16 -26
21 -14 6 -22 14 -19 20 3 5 -7 12 -22 16 -53 11 -60 16 -33 24 25 8 25 8 2 9
-13 1 -21 5 -18 9 3 5 0 9 -7 9 -7 0 -21 4 -32 8 -16 6 -17 5 -5 -4 12 -9 9
-11 -15 -9 -16 2 -33 7 -37 12 -3 5 -39 15 -80 22 -68 11 -70 12 -28 14 35 2
28 4 -35 11 -44 4 -95 10 -113 13 -18 3 -30 1 -27 -4 5 -8 -9 -7 -138 9 -32 4
-59 5 -61 2z m287 -28 c-7 -2 -19 -2 -25 0 -7 3 -2 5 12 5 14 0 19 -2 13 -5z
m282 -62 c3 -5 0 -13 -6 -17 -8 -5 -9 -3 -4 6 6 9 1 10 -16 5 -19 -5 -21 -4
-9 4 19 13 27 14 35 2z m-1299 -321 c0 -12 -4 -16 -9 -11 -5 5 -6 14 -3 20 10
15 12 14 12 -9z m-179 -812 c-3 -8 -6 -5 -6 6 -1 11 2 17 5 13 3 -3 4 -12 1
-19z"/>
<path d="M4030 8940 c0 -5 5 -10 10 -10 6 0 10 5 10 10 0 6 -4 10 -10 10 -5 0
-10 -4 -10 -10z"/>
<path d="M8698 8943 c7 -3 16 -2 19 1 4 3 -2 6 -13 5 -11 0 -14 -3 -6 -6z"/>
<path d="M4067 8929 c-11 -6 -30 -9 -43 -6 -13 2 -24 0 -24 -4 0 -5 -9 -9 -20
-9 -12 0 -32 -7 -45 -16 -13 -9 -30 -12 -36 -8 -8 4 -9 3 -5 -4 5 -8 -3 -10
-26 -7 -26 4 -29 3 -13 -4 16 -8 17 -10 3 -10 -9 -1 -25 -4 -35 -7 -13 -4 -14
-3 -5 4 19 13 -14 25 -35 13 -14 -7 -13 -10 5 -15 12 -4 22 -12 22 -17 0 -13
-14 -11 -29 4 -11 10 -13 9 -9 -3 5 -15 -66 -55 -82 -45 -4 3 -13 -1 -19 -9
-25 -30 14 -21 97 21 47 23 117 52 156 64 39 12 79 25 88 30 10 5 34 9 53 9
24 0 35 5 35 15 0 18 -8 18 -33 4z"/>
<path d="M6705 8910 c-3 -5 -1 -10 4 -10 6 0 11 5 11 10 0 6 -2 10 -4 10 -3 0
-8 -4 -11 -10z"/>
<path d="M14440 8910 c0 -5 5 -10 10 -10 6 0 10 5 10 10 0 6 -4 10 -10 10 -5
0 -10 -4 -10 -10z"/>
<path d="M2376 8895 c-11 -8 -15 -15 -9 -15 6 0 16 7 23 15 16 19 11 19 -14 0z"/>
<path d="M14410 8900 c0 -5 5 -10 11 -10 5 0 7 5 4 10 -3 6 -8 10 -11 10 -2 0
-4 -4 -4 -10z"/>
<path d="M6240 8867 c0 -9 5 -17 11 -17 8 0 8 -5 -1 -15 -9 -10 -9 -15 -1 -15
6 0 11 -10 11 -22 0 -17 3 -19 12 -10 8 8 8 15 -2 27 -7 8 -10 18 -6 22 3 4
12 -8 18 -25 7 -18 16 -32 20 -32 4 0 8 -8 8 -17 0 -9 7 -24 16 -34 13 -14 13
-22 4 -39 -8 -15 -8 -20 -1 -16 12 8 15 -5 4 -19 -5 -6 -4 -7 1 -3 5 3 14 5
20 4 6 -2 8 -1 4 1 -16 9 -7 22 12 20 11 -1 20 -6 20 -12 0 -6 9 -28 20 -49
10 -22 17 -42 15 -47 -3 -4 1 -13 8 -21 16 -16 29 -45 33 -78 2 -14 7 -52 12
-85 l9 -60 7 38 c8 38 -3 101 -28 161 -7 17 -14 34 -14 39 -4 19 -76 147 -84
147 -4 0 -8 6 -8 14 0 16 -26 40 -32 29 -3 -4 -3 -2 -1 5 3 14 -25 59 -64 102
-19 20 -23 22 -23 7z m112 -179 c-7 -7 -12 -8 -12 -2 0 14 12 26 19 19 2 -3
-1 -11 -7 -17z"/>
<path d="M7920 8849 c0 -5 5 -7 10 -4 6 3 10 8 10 11 0 2 -4 4 -10 4 -5 0 -10
-5 -10 -11z"/>
<path d="M10331 8824 c0 -11 3 -14 6 -6 3 7 2 16 -1 19 -3 4 -6 -2 -5 -13z"/>
<path d="M6746 8802 c6 -4 14 -16 17 -26 4 -10 10 -16 13 -13 9 8 -15 47 -29
47 -8 0 -9 -3 -1 -8z"/>
<path d="M6791 8794 c0 -11 3 -14 6 -6 3 7 2 16 -1 19 -3 4 -6 -2 -5 -13z"/>
<path d="M6280 8761 c0 -6 -10 -16 -22 -21 -23 -9 -23 -9 -2 -9 20 -1 41 26
29 37 -3 3 -5 0 -5 -7z"/>
<path d="M3622 8729 c-13 -16 -27 -27 -32 -24 -4 3 -22 -11 -39 -30 -17 -20
-31 -32 -31 -28 0 4 -10 -7 -22 -25 -16 -26 -23 -30 -30 -20 -6 9 -7 5 -3 -11
4 -13 3 -21 -2 -18 -5 3 -15 2 -23 -4 -10 -6 -11 -9 -2 -9 6 0 12 -5 12 -11 0
-5 -4 -8 -9 -5 -11 7 -66 -75 -62 -93 1 -7 -2 -10 -8 -7 -5 4 -11 -4 -13 -16
-2 -13 -9 -24 -15 -24 -7 -1 -16 -3 -20 -4 -5 -1 -11 -2 -15 -1 -4 0 -5 -7 -2
-17 5 -14 3 -14 -10 2 -9 11 -16 15 -16 10 0 -6 5 -15 11 -21 6 -6 13 -28 15
-49 4 -27 2 -35 -4 -25 -8 11 -11 9 -17 -8 -3 -11 -3 -25 0 -31 3 -5 2 -10 -3
-10 -6 0 -16 -29 -23 -65 -7 -36 -15 -61 -18 -56 -3 5 -6 -23 -6 -62 -1 -40
-4 -118 -8 -175 -5 -66 -4 -108 2 -116 12 -14 18 -87 8 -102 -3 -6 -2 -24 3
-40 8 -27 8 -26 10 16 l2 45 9 -49 c4 -27 13 -52 20 -56 6 -4 8 -13 5 -19 -10
-15 3 -53 15 -46 13 8 11 -19 -2 -32 -6 -6 -9 -19 -6 -29 4 -16 5 -15 6 4 0
12 6 22 12 22 6 0 9 -9 6 -19 -3 -14 -1 -18 10 -14 7 3 13 2 11 -3 -4 -15 13
-54 23 -54 6 0 7 -4 4 -10 -3 -5 -1 -18 5 -27 10 -16 11 -16 6 2 -6 20 -6 20
9 1 8 -11 11 -22 6 -26 -5 -3 -1 -17 11 -30 13 -16 18 -19 14 -7 -3 9 -1 17 3
17 11 0 23 -28 26 -60 1 -14 3 -31 3 -37 1 -8 14 -11 32 -9 17 2 30 -1 30 -5
0 -5 5 -9 11 -9 6 0 -7 20 -28 44 -46 52 -123 162 -123 176 0 5 -7 13 -16 18
-9 5 -15 12 -14 16 1 3 -8 32 -20 63 -41 111 -71 229 -72 286 0 32 -4 59 -7
62 -11 6 9 173 32 275 11 52 20 109 20 125 -1 17 1 24 4 17 3 -8 26 28 52 80
26 51 54 104 62 118 23 41 116 152 156 187 21 18 54 46 73 62 20 18 29 30 20
30 -8 0 -25 -13 -38 -30z m-296 -357 c-18 -16 -18 -16 -6 6 6 13 14 21 18 18
3 -4 -2 -14 -12 -24z m138 -1126 c2 -14 0 -23 -4 -21 -4 3 -7 16 -7 30 0 32 8
26 11 -9z m31 -16 c3 -5 1 -10 -4 -10 -6 0 -11 5 -11 10 0 6 2 10 4 10 3 0 8
-4 11 -10z"/>
<path d="M10400 8756 c0 -2 8 -10 18 -17 15 -13 16 -12 3 4 -13 16 -21 21 -21
13z"/>
<path d="M14590 8751 c0 -5 5 -13 10 -16 6 -3 10 -2 10 4 0 5 -4 13 -10 16 -5
3 -10 2 -10 -4z"/>
<path d="M7690 8696 c4 -4 16 -4 26 2 16 9 14 10 -8 9 -15 -1 -23 -6 -18 -11z"/>
<path d="M2111 8639 c-11 -28 -18 -56 -14 -62 3 -5 2 -7 -4 -4 -6 4 -15 -11
-22 -32 -15 -53 -14 -60 6 -31 10 14 17 28 16 32 -1 3 4 11 12 18 7 6 11 18 9
25 -3 7 0 23 6 35 12 23 23 70 17 70 -3 0 -14 -23 -26 -51z"/>
<path d="M2138 8625 c-8 -19 -12 -35 -8 -35 8 0 33 61 27 66 -2 2 -10 -12 -19
-31z"/>
<path d="M10951 8644 c0 -11 3 -14 6 -6 3 7 2 16 -1 19 -3 4 -6 -2 -5 -13z"/>
<path d="M14647 8643 c3 -7 6 -13 8 -13 2 0 5 6 8 13 3 8 -1 14 -8 14 -7 0
-11 -6 -8 -14z"/>
<path d="M13298 8553 c6 -2 18 -2 25 0 6 3 1 5 -13 5 -14 0 -19 -2 -12 -5z"/>
<path d="M3390 8540 c0 -5 5 -10 10 -10 6 0 10 5 10 10 0 6 -4 10 -10 10 -5 0
-10 -4 -10 -10z"/>
<path d="M6867 8533 c-4 -3 -7 -13 -7 -22 1 -13 3 -13 11 2 11 19 8 33 -4 20z"/>
<path d="M10565 8530 c-3 -5 -1 -10 4 -10 6 0 11 5 11 10 0 6 -2 10 -4 10 -3
0 -8 -4 -11 -10z"/>
<path d="M4115 8523 c-31 -7 -79 -25 -94 -37 -7 -5 -20 -11 -28 -12 -47 -7
-206 -148 -258 -229 -56 -88 -77 -158 -83 -282 -4 -92 -2 -113 9 -113 15 0 20
62 6 76 -10 10 -9 84 1 84 5 0 8 10 7 23 -3 36 12 89 48 167 13 27 16 30 13
10 -3 -14 -7 -34 -11 -45 -4 -14 -2 -12 9 5 8 14 15 40 16 58 0 20 4 31 10 27
6 -3 10 -2 10 4 0 6 6 8 14 5 8 -3 17 -1 21 5 4 7 0 8 -11 4 -12 -4 -15 -2
-12 8 3 8 13 13 23 11 10 -2 14 1 10 7 -7 12 19 44 28 35 3 -3 14 -1 24 6 16
10 16 10 -4 5 -13 -4 -23 -4 -23 0 0 13 56 54 67 50 7 -2 12 -1 12 3 -4 24 3
34 21 29 11 -3 18 0 17 7 -1 6 7 10 18 9 11 -1 37 11 57 28 37 29 54 37 44 20
-4 -5 4 -7 16 -3 21 5 21 6 2 12 -39 14 52 18 426 19 205 1 376 4 379 6 6 6
-757 4 -784 -2z"/>
<path d="M6417 8509 c4 -13 8 -18 11 -10 2 7 -1 18 -6 23 -8 8 -9 4 -5 -13z"/>
<path d="M8261 8516 c-14 -8 -31 -12 -38 -9 -25 10 -178 -74 -236 -130 -31
-31 -57 -61 -57 -69 1 -9 4 -9 13 3 7 9 18 14 25 12 8 -3 10 1 5 13 -4 12 -2
15 8 12 8 -3 13 -14 11 -24 -2 -15 -1 -16 7 -4 7 10 6 19 -1 28 -9 10 -5 19
18 37 16 13 33 21 38 18 5 -4 6 0 1 7 -6 10 -4 12 8 7 9 -3 27 -2 39 4 21 9
21 9 -4 4 -16 -3 -28 -1 -28 5 0 5 6 10 12 10 18 0 122 44 126 52 2 5 15 5 29
2 14 -4 28 -3 32 2 3 5 17 15 31 21 22 10 22 12 5 12 -11 0 -31 -6 -44 -13z"/>
<path d="M8400 8519 c41 -4 88 -8 104 -8 15 0 35 -6 42 -12 11 -9 14 -8 14 2
0 12 2 12 9 1 5 -8 20 -12 37 -10 62 8 -49 30 -166 33 -108 3 -110 3 -40 -6z"/>
<path d="M6842 8495 c0 -16 2 -22 5 -12 2 9 2 23 0 30 -3 6 -5 -1 -5 -18z"/>
<path d="M4888 8503 c7 -3 16 -2 19 1 4 3 -2 6 -13 5 -11 0 -14 -3 -6 -6z"/>
<path d="M10618 8490 c-4 -8 -9 -28 -13 -45 -6 -28 -5 -29 10 -14 10 10 15 27
13 45 -3 19 -6 24 -10 14z"/>
<path d="M4890 8211 c0 -153 -3 -293 -6 -310 -4 -19 -2 -31 4 -31 8 0 11 96
12 310 0 171 -2 310 -5 310 -3 0 -5 -125 -5 -279z"/>
<path d="M6872 8470 c0 -14 2 -19 5 -12 2 6 2 18 0 25 -3 6 -5 1 -5 -13z"/>
<path d="M8649 8481 c11 -7 11 -10 0 -15 -8 -3 -3 -3 11 0 l25 6 -25 -28 -25
-28 32 22 c17 13 34 18 37 13 4 -5 -3 -13 -15 -16 -17 -6 -19 -9 -8 -16 8 -5
19 -9 24 -9 6 0 4 4 -3 9 -11 7 -10 9 3 14 16 7 55 -11 55 -25 0 -5 7 -8 15
-8 9 0 20 -11 26 -24 7 -15 17 -22 25 -19 10 4 12 0 8 -12 -6 -14 -3 -16 16
-10 14 4 20 3 16 -3 -3 -5 1 -13 10 -16 10 -4 13 -13 9 -28 -5 -19 -4 -20 5
-8 9 12 11 10 7 -12 -3 -19 0 -25 10 -21 7 3 10 9 7 14 -3 5 -3 9 -1 9 10 0
47 -72 47 -91 0 -10 5 -18 11 -16 6 1 14 -4 17 -12 3 -8 0 -11 -7 -7 -7 5 -9
1 -5 -8 3 -9 10 -13 15 -10 15 9 10 -8 -8 -30 -14 -17 -15 -18 -2 -8 14 11 17
9 23 -10 3 -13 6 -33 6 -45 0 -12 5 -23 10 -25 7 -2 7 -15 0 -37 -6 -21 -6
-37 -1 -41 15 -9 -2 -197 -20 -214 -5 -6 -9 -23 -9 -39 0 -16 -4 -26 -10 -22
-6 3 -7 -1 -4 -9 3 -9 1 -16 -5 -16 -6 0 -11 -10 -11 -22 0 -17 -3 -19 -9 -9
-6 9 -11 10 -15 2 -4 -6 -11 -9 -15 -6 -5 2 -7 -12 -5 -33 2 -34 2 -36 -12
-18 -8 11 -14 15 -14 10 0 -6 6 -16 13 -23 10 -11 9 -13 -5 -8 -12 4 -15 2
-12 -8 4 -10 0 -12 -15 -8 -16 4 -20 2 -16 -9 7 -17 -32 -61 -47 -52 -6 4 -8
3 -5 -3 8 -13 -18 -37 -32 -29 -15 10 -43 -5 -37 -20 3 -7 0 -16 -6 -20 -7 -4
-8 -3 -4 4 11 17 -10 14 -28 -4 -9 -8 -21 -12 -27 -8 -7 4 -9 3 -6 -3 9 -14
-15 -23 -45 -17 -21 4 -22 4 -3 -6 16 -8 11 -9 -20 -5 -24 4 -35 2 -27 -3 16
-11 -124 -33 -198 -30 l-55 1 65 7 c64 7 64 7 -30 8 -115 2 -140 4 -135 13 7
11 -47 30 -67 23 -15 -4 -18 -3 -13 7 6 9 3 11 -8 6 -10 -3 -17 -3 -17 2 0 5
-13 14 -30 21 -16 7 -30 16 -30 21 0 5 -4 9 -10 9 -15 0 -50 33 -44 42 3 4 0
8 -5 8 -6 0 -11 6 -11 14 0 8 -5 18 -12 22 -8 5 -9 2 -5 -9 10 -26 -8 -20 -23
8 -7 13 -17 22 -23 18 -5 -3 -6 4 -2 18 5 20 4 21 -5 9 -10 -12 -11 -11 -7 8
3 14 1 20 -5 16 -6 -4 -8 -1 -6 7 3 8 11 13 17 11 7 -1 10 2 6 8 -5 8 -11 8
-20 0 -10 -8 -19 0 -39 34 -27 46 -32 61 -17 52 4 -3 6 6 3 19 -5 27 -32 35
-32 10 0 -8 5 -15 11 -15 5 0 8 -4 5 -9 -8 -12 14 -71 25 -71 5 0 9 -8 9 -18
0 -20 65 -112 101 -143 117 -100 173 -128 309 -154 95 -19 175 -19 270 0 148
28 239 77 343 181 140 140 193 365 138 582 -46 177 -156 315 -317 396 -49 25
-84 35 -55 17z m296 -910 c-3 -6 -11 -11 -17 -11 -6 0 -6 6 2 15 14 17 26 13
15 -4z m-755 -231 c8 -5 11 -10 5 -10 -5 0 -17 5 -25 10 -8 5 -10 10 -5 10 6
0 17 -5 25 -10z"/>
<path d="M2057 8473 c-4 -7 -5 -25 -1 -40 4 -22 3 -25 -5 -13 -8 11 -11 -4
-11 -60 0 -91 10 -180 20 -180 9 0 5 98 -5 153 -4 23 -3 48 5 66 13 31 10 94
-3 74z"/>
<path d="M6841 8444 c0 -11 3 -14 6 -6 3 7 2 16 -1 19 -3 4 -6 -2 -5 -13z"/>
<path d="M4045 8440 c-3 -6 1 -7 9 -4 18 7 21 14 7 14 -6 0 -13 -4 -16 -10z"/>
<path d="M3980 8420 c-9 -6 -10 -10 -3 -10 6 0 15 5 18 10 8 12 4 12 -15 0z"/>
<path d="M6823 8286 c-1 -133 -3 -147 -37 -251 -39 -118 -68 -178 -153 -318
l-53 -89 32 -36 c85 -98 932 -949 1222 -1229 206 -198 464 -298 681 -263 74
12 183 45 195 59 3 3 11 7 19 9 18 4 124 72 133 86 11 16 10 26 -2 26 -5 0
-10 -7 -10 -16 0 -11 -6 -13 -19 -9 -11 3 -22 1 -26 -4 -4 -7 1 -8 11 -4 12 4
15 3 10 -5 -10 -16 -85 -54 -94 -48 -5 3 -21 -6 -36 -19 -20 -17 -37 -23 -55
-20 -17 4 -20 3 -9 -2 14 -7 11 -10 -17 -19 -20 -6 -38 -7 -41 -3 -3 5 -10 9
-15 9 -6 0 -8 -4 -4 -9 9 -15 -99 -24 -192 -17 -87 7 -138 20 -130 33 3 5 -11
8 -31 9 -20 0 -37 5 -39 11 -2 6 -13 9 -23 6 -11 -3 -20 0 -20 6 0 6 -9 11
-21 11 -11 0 -17 4 -14 10 8 13 -12 40 -29 40 -6 0 -3 -7 7 -14 27 -21 20 -28
-13 -11 -16 8 -37 27 -46 40 -9 14 -21 25 -27 25 -5 0 -2 -10 9 -21 19 -22 19
-22 -3 -8 -12 7 -21 22 -20 32 1 11 -4 22 -11 24 -8 3 -10 -1 -5 -14 6 -17 6
-17 -14 0 -12 10 -20 26 -18 35 1 9 0 11 -2 5 -6 -18 -6 -18 -50 25 -21 20
-58 53 -81 73 -37 32 -58 60 -34 45 5 -3 9 1 9 9 0 7 -8 12 -16 10 -23 -4 -64
31 -55 47 4 7 4 10 -1 6 -11 -10 -37 11 -29 23 3 5 2 8 -3 7 -12 -4 -58 31
-50 38 4 4 16 -1 27 -11 11 -10 20 -13 20 -7 0 7 -5 12 -11 12 -6 0 -8 9 -4
23 3 12 3 17 -2 11 -14 -19 -41 -23 -53 -8 -7 8 -9 14 -4 14 5 0 -6 8 -24 17
-21 10 -31 21 -28 30 3 8 2 12 -3 9 -12 -8 -33 19 -23 28 4 4 2 6 -3 4 -14 -4
-60 30 -52 38 4 4 16 -1 27 -11 11 -10 20 -13 20 -7 0 7 -5 12 -11 12 -6 0 -8
9 -4 23 3 12 3 17 -2 11 -21 -27 -42 -22 -87 24 -34 34 -43 49 -35 59 6 7 9
18 6 25 -4 8 -6 7 -6 -4 -1 -18 -31 -26 -31 -10 0 5 -11 14 -25 20 -14 6 -25
19 -25 27 0 9 -4 14 -9 10 -5 -3 -12 4 -16 14 -3 11 -15 23 -26 26 -21 7 -26
25 -7 25 6 0 8 3 5 6 -4 4 -13 1 -22 -6 -9 -8 -15 -8 -15 -2 0 6 5 14 10 17 6
3 10 12 10 18 0 7 -4 6 -10 -3 -8 -13 -12 -12 -29 7 -11 12 -29 24 -40 28 -12
4 -18 12 -14 21 3 10 0 12 -10 8 -10 -4 -15 0 -14 13 1 11 -10 23 -30 32 -33
15 -47 36 -16 24 11 -4 14 -3 9 6 -5 7 -14 10 -22 7 -8 -3 -14 1 -14 9 0 8
-13 21 -30 30 -16 9 -30 23 -30 31 0 11 -6 14 -16 10 -8 -3 -12 -2 -9 4 3 5
-2 15 -11 22 -42 34 -66 60 -60 65 3 4 13 -2 20 -13 14 -19 15 -19 12 1 -2 12
-13 22 -27 25 -34 7 -65 27 -56 36 4 4 16 -1 27 -11 11 -10 20 -13 20 -8 0 15
-26 35 -43 31 -14 -3 -89 57 -81 65 9 8 -18 55 -30 51 -14 -4 -69 43 -62 54 3
5 -2 21 -9 36 -12 23 -12 27 -1 23 9 -4 12 2 10 18 -1 13 6 31 17 41 10 9 19
27 19 38 0 17 2 18 10 6 8 -13 10 -13 10 1 0 9 14 44 32 79 26 53 33 60 39 44
5 -11 6 -1 2 23 -4 33 -2 44 10 48 9 4 13 14 9 27 -4 16 -2 19 8 13 9 -5 11
-4 6 4 -4 6 0 25 8 42 9 17 19 61 23 98 5 46 9 59 13 41 3 -13 6 35 5 108 0
78 -4 133 -10 136 -6 2 -11 -49 -12 -138z m-208 -666 c-3 -5 1 -11 7 -13 10
-4 10 -6 1 -6 -7 -1 -17 8 -23 19 -9 16 -8 18 5 14 8 -3 13 -10 10 -14z m98
-104 c4 -10 1 -13 -8 -9 -8 3 -12 9 -9 14 7 12 11 11 17 -5z"/>
<path d="M10629 8425 c-5 -9 -4 -163 1 -195 2 -8 6 12 10 45 7 61 -1 168 -11
150z"/>
<path d="M8050 8355 c-7 -9 -11 -18 -8 -20 3 -3 11 1 18 10 7 9 11 18 8 20 -3
3 -11 -1 -18 -10z"/>
<path d="M2071 8344 c0 -11 3 -14 6 -6 3 7 2 16 -1 19 -3 4 -6 -2 -5 -13z"/>
<path d="M6494 8333 c-4 -10 -9 -34 -10 -53 -10 -101 -16 -132 -26 -119 -7 10
-7 8 -3 -8 8 -29 -4 -51 -16 -32 -6 11 -9 9 -9 -7 0 -11 -7 -35 -16 -52 -8
-18 -13 -36 -9 -42 10 -16 -6 -34 -17 -19 -7 11 -8 11 -7 -1 3 -17 -27 -90
-37 -90 -3 0 -3 7 0 16 4 11 -2 8 -18 -7 -26 -25 -27 -41 -1 -19 8 7 15 9 15
4 -1 -15 -27 -44 -39 -44 -7 0 -10 -4 -7 -8 6 -10 -33 -56 -41 -48 -3 3 2 12
11 21 23 24 20 32 -4 10 -12 -11 -18 -25 -15 -36 5 -14 -4 -23 -33 -38 -22
-11 -42 -18 -44 -16 -3 3 -4 -5 -3 -17 2 -25 -15 -49 -29 -40 -5 3 -6 1 -3 -5
3 -5 -3 -17 -14 -26 -10 -9 -19 -13 -19 -7 0 5 5 12 10 15 6 4 8 11 4 16 -11
19 -35 -11 -24 -31 7 -13 5 -22 -9 -34 -10 -9 -21 -13 -25 -9 -4 5 -7 4 -6 -2
5 -21 -1 -29 -9 -16 -5 8 -16 16 -24 17 -14 2 -16 -9 -5 -42 1 -7 -9 -23 -24
-37 -16 -14 -28 -21 -28 -15 0 7 -5 7 -14 -1 -10 -8 -16 -9 -19 -1 -3 6 -4 5
-3 -2 2 -7 11 -12 21 -10 14 3 12 -3 -10 -27 -16 -16 -33 -27 -38 -24 -6 3 -7
1 -3 -5 3 -6 2 -13 -3 -16 -5 -3 -12 1 -15 10 -9 24 -34 0 -31 -31 2 -16 -3
-26 -16 -30 -10 -4 -18 -9 -18 -13 3 -19 -2 -25 -10 -13 -19 30 -36 20 -36
-20 0 -22 1 -39 3 -39 6 0 442 441 442 447 0 3 -8 -1 -17 -8 -16 -13 -17 -12
-5 3 8 9 19 15 25 13 34 -11 261 314 242 345 -4 6 -2 10 2 10 11 0 32 71 38
125 2 22 7 59 10 83 7 44 2 54 -11 25z m-68 -290 c-18 -33 -21 -26 -6 13 6 15
13 24 16 21 3 -3 -1 -18 -10 -34z m-399 -465 c2 -17 0 -19 -7 -8 -5 8 -6 18
-4 22 8 12 10 10 11 -14z m-160 -158 c1 -11 -2 -22 -6 -24 -6 -4 -7 26 -2 42
3 8 7 -1 8 -18z m-80 -67 c-4 -3 -2 -12 3 -18 7 -9 6 -14 -3 -18 -9 -3 -13 2
-11 16 3 28 3 27 11 27 3 0 3 -3 0 -7z"/>
<path d="M9421 8305 c1 -19 18 -51 18 -35 0 8 -4 22 -9 30 -5 8 -9 11 -9 5z"/>
<path d="M7869 8228 c-23 -39 -49 -92 -57 -117 -17 -55 -27 -268 -15 -331 9
-44 9 -44 22 -21 7 13 9 21 4 18 -5 -3 -9 62 -11 144 -1 104 1 149 9 149 7 0
9 10 7 25 -3 14 -1 28 3 31 5 3 9 12 9 20 0 9 11 30 25 48 14 18 25 38 25 44
0 7 6 11 13 10 7 -2 11 5 9 16 -2 11 1 15 7 11 6 -3 11 -2 11 4 0 32 -24 12
-61 -51z"/>
<path d="M7974 8285 c8 -8 18 -15 22 -15 3 0 1 7 -6 15 -7 8 -17 15 -22 15 -5
0 -3 -7 6 -15z"/>
<path d="M13410 8275 c0 -8 -4 -15 -10 -15 -5 0 -22 -19 -36 -42 -15 -24 -30
-45 -33 -48 -13 -11 -7 -36 9 -36 10 0 16 8 15 21 -1 11 6 32 16 47 11 14 19
32 19 39 0 8 5 6 13 -5 12 -16 13 -14 14 18 1 20 -1 36 -3 36 -2 0 -4 -7 -4
-15z"/>
<path d="M3820 8259 c0 -5 5 -7 10 -4 6 3 10 8 10 11 0 2 -4 4 -10 4 -5 0 -10
-5 -10 -11z"/>
<path d="M14728 8207 c-3 -19 -2 -25 4 -19 6 6 8 18 6 28 -3 14 -5 12 -10 -9z"/>
<path d="M10613 8184 c5 -28 -12 -94 -24 -94 -5 0 -6 8 -3 18 4 12 3 14 -4 4
-5 -7 -7 -24 -5 -37 5 -24 -25 -100 -36 -90 -3 4 -14 -11 -24 -32 -9 -21 -15
-28 -13 -15 2 12 0 20 -5 16 -5 -3 -9 -16 -9 -29 0 -29 -25 -56 -45 -49 -8 4
-15 10 -15 15 0 15 -18 10 -24 -7 -8 -22 14 -50 25 -32 4 7 11 9 15 5 4 -4 -2
-16 -13 -27 -15 -14 -23 -16 -26 -7 -3 7 -6 4 -6 -5 -1 -22 -38 -61 -51 -53
-6 3 -7 -1 -4 -9 8 -21 -6 -20 -22 2 -12 15 -13 15 -8 0 4 -13 1 -16 -18 -12
-20 5 -21 4 -5 -6 9 -6 22 -8 27 -5 6 3 10 2 10 -3 0 -6 -11 -13 -24 -16 -14
-3 -23 -13 -22 -22 0 -9 -5 -19 -13 -22 -9 -3 -11 0 -6 9 5 8 4 11 -1 6 -5 -5
-9 -16 -9 -25 0 -9 -6 -16 -12 -15 -7 2 -20 -9 -30 -25 -9 -15 -18 -29 -20
-31 -1 -2 -11 2 -20 10 -16 13 -17 12 -4 -3 12 -16 10 -20 -18 -35 -17 -10
-30 -24 -28 -32 1 -8 -4 -16 -12 -19 -9 -3 -11 0 -6 8 5 8 4 11 -3 6 -6 -4 -9
-13 -6 -20 3 -8 -7 -18 -25 -25 -16 -7 -31 -22 -34 -33 -3 -11 -10 -17 -16
-14 -5 4 -13 1 -17 -5 -5 -8 -3 -9 6 -4 8 5 11 3 8 -6 -3 -8 -10 -14 -16 -14
-6 0 -20 -10 -32 -22 -11 -13 -18 -23 -15 -23 3 0 -4 -9 -15 -20 -11 -11 -24
-20 -28 -20 -5 0 -15 -11 -22 -25 -8 -15 -20 -23 -27 -20 -8 2 -12 1 -8 -4 3
-5 -8 -19 -25 -31 -16 -12 -29 -26 -27 -33 1 -7 -7 -12 -18 -12 -13 0 -19 -7
-19 -18 1 -9 -4 -17 -10 -17 -7 0 -19 -11 -26 -25 -8 -15 -20 -23 -27 -20 -8
2 -12 1 -9 -4 3 -4 -10 -21 -29 -36 -18 -16 -32 -33 -29 -37 7 -11 -10 -10
-24 2 -9 7 -9 7 -2 -2 14 -16 13 -31 -2 -22 -7 4 -8 3 -4 -4 4 -7 2 -12 -3
-12 -15 0 -51 -37 -43 -44 3 -3 1 -6 -4 -6 -6 0 -16 6 -23 13 -9 9 -12 9 -9 0
4 -17 -33 -71 -54 -76 -12 -3 -16 -11 -12 -21 7 -17 -11 -22 -21 -6 -3 6 -14
10 -23 10 -13 -1 -11 -4 7 -14 24 -13 24 -14 3 -20 -14 -5 -19 -12 -15 -23 5
-12 1 -14 -14 -9 -24 8 -46 -14 -37 -38 5 -12 57 34 215 191 115 115 214 213
219 218 6 6 130 129 276 275 146 146 284 283 307 305 50 47 152 163 152 173 0
4 13 25 28 47 50 75 95 235 66 235 -7 0 -9 -11 -6 -26z m-183 -314 c0 -5 -4
-10 -10 -10 -5 0 -10 5 -10 10 0 6 5 10 10 10 6 0 10 -4 10 -10z m-899 -943
c-10 -9 -11 -8 -5 6 3 10 9 15 12 12 3 -3 0 -11 -7 -18z m-151 -142 c-7 -9
-15 -13 -17 -11 -7 7 7 26 19 26 6 0 6 -6 -2 -15z"/>
<path d="M8936 8185 c4 -8 8 -15 10 -15 2 0 4 7 4 15 0 8 -4 15 -10 15 -5 0
-7 -7 -4 -15z"/>
<path d="M10960 8173 c0 -15 -8 -60 -18 -100 -11 -41 -15 -78 -10 -85 5 -8 8
-2 8 17 0 24 2 27 10 15 8 -11 9 -9 5 11 -4 14 1 45 9 70 18 51 20 85 6 94 -6
4 -10 -6 -10 -22z"/>
<path d="M8900 8180 c0 -5 5 -10 11 -10 5 0 7 5 4 10 -3 6 -8 10 -11 10 -2 0
-4 -4 -4 -10z"/>
<path d="M7366 8167 c3 -10 9 -15 12 -12 3 3 0 11 -7 18 -10 9 -11 8 -5 -6z"/>
<path d="M2065 8160 c-10 -16 47 -161 87 -225 42 -66 184 -225 200 -225 17 0
7 19 -13 25 -13 4 -18 12 -15 21 3 8 2 13 -3 10 -5 -3 -15 1 -22 10 -10 13
-10 17 0 24 9 5 10 10 2 14 -6 4 -11 2 -11 -4 0 -20 -49 24 -50 45 -1 12 -4
15 -7 7 -6 -14 -48 36 -64 76 -5 12 -13 22 -19 22 -5 0 -10 7 -10 15 0 8 -4
23 -9 33 -16 29 -24 56 -22 71 1 7 -2 10 -8 6 -7 -3 -8 0 -5 9 3 9 1 16 -5 16
-15 0 -14 33 1 48 9 9 8 12 -4 12 -9 0 -20 -4 -23 -10z"/>
<path d="M5341 8163 c0 -4 4 -17 9 -28 8 -19 9 -19 9 2 1 12 -3 25 -9 28 -5 3
-10 3 -9 -2z"/>
<path d="M13281 8141 c-22 -14 -77 -16 -468 -19 -409 -3 -443 -4 -443 -20 0
-12 3 -13 8 -5 6 9 118 12 451 14 427 1 444 2 463 21 25 25 20 30 -11 9z"/>
<path d="M3741 8134 c0 -11 3 -14 6 -6 3 7 2 16 -1 19 -3 4 -6 -2 -5 -13z"/>
<path d="M3706 8125 c-3 -9 -6 -22 -5 -28 0 -7 5 -1 10 12 5 13 8 26 5 28 -2
2 -6 -3 -10 -12z"/>
<path d="M13290 8120 c0 -5 5 -10 10 -10 6 0 10 5 10 10 0 6 -4 10 -10 10 -5
0 -10 -4 -10 -10z"/>
<path d="M6861 8104 c0 -11 3 -14 6 -6 3 7 2 16 -1 19 -3 4 -6 -2 -5 -13z"/>
<path d="M12343 7958 c5 -138 10 -176 32 -245 14 -46 30 -83 36 -83 5 0 9 -6
7 -12 -3 -15 15 -24 20 -10 1 5 -4 16 -12 25 -9 9 -12 23 -9 37 5 18 3 22 -9
17 -13 -5 -16 3 -15 41 1 32 -3 46 -11 45 -7 -2 -12 3 -13 10 -7 76 -8 103
-12 170 -2 43 0 80 5 83 5 3 4 11 -2 19 -6 7 -8 25 -4 39 4 18 2 26 -6 26 -10
0 -12 -35 -7 -162z m39 -210 c-7 -7 -12 -8 -12 -2 0 14 12 26 19 19 2 -3 -1
-11 -7 -17z"/>
<path d="M12573 8093 c103 -2 271 -2 375 0 103 1 18 2 -188 2 -206 0 -291 -1
-187 -2z"/>
<path d="M13158 8093 c12 -2 32 -2 45 0 12 2 2 4 -23 4 -25 0 -35 -2 -22 -4z"/>
<path d="M8980 8054 c0 -8 5 -12 10 -9 6 4 8 11 5 16 -9 14 -15 11 -15 -7z"/>
<path d="M2138 8032 c-3 -10 1 -27 8 -37 8 -10 14 -14 14 -8 0 7 -4 14 -9 17
-5 3 -7 15 -4 26 3 11 3 20 0 20 -2 0 -7 -8 -9 -18z"/>
<path d="M5340 7966 c0 -14 4 -27 8 -30 5 -3 6 8 4 25 -5 35 -12 38 -12 5z"/>
<path d="M10910 7968 c0 -8 -20 -54 -45 -103 -24 -49 -43 -91 -40 -93 2 -2 11
10 20 27 8 17 18 31 21 31 2 0 0 -9 -6 -19 -5 -11 -10 -23 -10 -28 1 -4 8 4
16 20 8 15 12 32 9 37 -3 6 -1 10 5 10 6 0 8 5 5 10 -4 6 0 22 9 35 9 13 16
32 16 42 0 15 2 16 10 3 8 -12 10 -11 10 7 0 12 -4 25 -10 28 -5 3 -10 0 -10
-7z"/>
<path d="M6770 7936 c0 -2 7 -7 16 -10 8 -3 12 -2 9 4 -6 10 -25 14 -25 6z"/>
<path d="M10920 7909 c0 -5 5 -7 10 -4 6 3 10 8 10 11 0 2 -4 4 -10 4 -5 0
-10 -5 -10 -11z"/>
<path d="M10450 7900 c0 -5 5 -10 10 -10 6 0 10 5 10 10 0 6 -4 10 -10 10 -5
0 -10 -4 -10 -10z"/>
<path d="M7369 7822 c5 -34 6 -35 9 -8 2 16 0 32 -5 37 -5 5 -7 -7 -4 -29z"/>
<path d="M8967 7839 c4 -13 8 -18 11 -10 2 7 -1 18 -6 23 -8 8 -9 4 -5 -13z"/>
<path d="M11921 7844 c0 -11 3 -14 6 -6 3 7 2 16 -1 19 -3 4 -6 -2 -5 -13z"/>
<path d="M4869 7813 c-6 -21 -15 -42 -19 -48 -4 -5 -11 -30 -15 -55 -10 -67
-15 -81 -27 -74 -7 5 -9 1 -5 -9 6 -16 -3 -22 -26 -18 -5 1 -6 -3 -2 -9 9 -14
-8 -13 -25 3 -8 6 -5 0 8 -14 12 -14 19 -28 16 -32 -4 -3 -15 4 -25 16 -10 12
-18 17 -19 10 0 -6 6 -13 13 -16 9 -3 8 -8 -3 -22 -8 -10 -14 -20 -12 -22 10
-13 -2 -22 -23 -17 -15 4 -25 2 -25 -5 0 -6 7 -8 15 -5 21 9 19 -1 -9 -31 -14
-15 -29 -24 -33 -22 -5 3 -15 2 -23 -4 -10 -6 -11 -9 -2 -9 6 0 12 -5 12 -11
0 -5 -4 -8 -9 -4 -5 3 -13 0 -16 -6 -4 -5 -13 -8 -21 -5 -9 3 -14 -2 -14 -14
0 -28 9 -25 65 21 107 88 178 187 215 302 22 67 36 137 27 137 -3 0 -11 -17
-18 -37z m-12 -75 c-3 -8 -6 -5 -6 6 -1 11 2 17 5 13 3 -3 4 -12 1 -19z m-64
-153 c-3 -9 -8 -14 -10 -11 -3 3 -2 9 2 15 9 16 15 13 8 -4z"/>
<path d="M5332 7825 c0 -16 2 -22 5 -12 2 9 2 23 0 30 -3 6 -5 -1 -5 -18z"/>
<path d="M9002 7830 c0 -14 2 -19 5 -12 2 6 2 18 0 25 -3 6 -5 1 -5 -13z"/>
<path d="M3664 7785 c5 -69 27 -141 62 -202 25 -43 54 -57 54 -27 0 10 -5 14
-16 10 -23 -9 -50 60 -35 88 10 18 11 17 5 -9 -3 -16 -2 -26 2 -22 4 4 9 21
10 38 l2 31 -24 -23 c-24 -22 -35 -14 -12 9 8 8 9 12 1 12 -6 0 -13 -3 -16 -7
-2 -5 -2 -2 0 6 2 7 -1 19 -6 25 -5 6 -9 22 -9 36 0 14 -5 41 -11 60 -10 32
-10 30 -7 -25z"/>
<path d="M12380 7810 c0 -5 5 -10 11 -10 5 0 7 5 4 10 -3 6 -8 10 -11 10 -2 0
-4 -4 -4 -10z"/>
<path d="M3222 7750 c0 -14 2 -19 5 -12 2 6 2 18 0 25 -3 6 -5 1 -5 -13z"/>
<path d="M8986 7755 c-3 -9 -6 -22 -5 -28 0 -7 5 -1 10 12 5 13 8 26 5 28 -2
2 -6 -3 -10 -12z"/>
<path d="M14405 7759 c-4 -6 -5 -12 -2 -15 2 -3 7 2 10 11 7 17 1 20 -8 4z"/>
<path d="M2370 7750 c0 -5 5 -10 10 -10 6 0 10 5 10 10 0 6 -4 10 -10 10 -5 0
-10 -4 -10 -10z"/>
<path d="M10785 7733 c-10 -16 -29 -40 -43 -55 l-26 -28 25 -26 c31 -34 52
-44 68 -35 9 6 8 11 -5 22 -15 12 -17 12 -9 0 6 -11 4 -13 -9 -8 -10 4 -20 7
-22 7 -3 0 4 10 15 21 17 19 18 23 5 36 -17 18 -18 34 -1 31 6 -2 12 5 12 15
0 10 11 25 25 32 24 14 24 14 4 15 -13 0 -29 -11 -39 -27z m-11 -70 c7 -18
-14 -37 -27 -24 -9 9 1 41 13 41 4 0 11 -8 14 -17z"/>
<path d="M10250 7719 c0 -5 5 -7 10 -4 6 3 10 8 10 11 0 2 -4 4 -10 4 -5 0
-10 -5 -10 -11z"/>
<path d="M14402 7699 c-14 -22 -7 -25 14 -5 8 8 11 17 6 20 -4 2 -13 -4 -20
-15z"/>
<path d="M11957 7675 c-3 -22 -2 -58 2 -80 8 -37 9 -37 10 -10 l2 30 14 -37
c8 -21 21 -54 28 -73 8 -19 16 -33 19 -30 3 3 -5 31 -18 63 -13 31 -24 63 -24
70 0 6 -8 12 -17 12 -12 0 -14 3 -7 8 8 4 9 21 5 47 l-7 40 -7 -40z"/>
<path d="M2430 7625 c41 -41 78 -75 82 -75 17 0 7 19 -13 25 -13 4 -18 12 -15
21 3 8 2 12 -3 9 -6 -3 -32 17 -60 45 -27 27 -54 50 -58 50 -4 0 26 -34 67
-75z"/>
<path d="M7371 7674 c0 -11 3 -14 6 -6 3 7 2 16 -1 19 -3 4 -6 -2 -5 -13z"/>
<path d="M12450 7686 c0 -2 7 -9 15 -16 13 -11 14 -10 9 4 -5 14 -24 23 -24
12z"/>
<path d="M7391 7644 c0 -11 3 -14 6 -6 3 7 2 16 -1 19 -3 4 -6 -2 -5 -13z"/>
<path d="M2450 7642 c0 -12 19 -26 26 -19 2 2 -2 10 -11 17 -9 8 -15 8 -15 2z"/>
<path d="M3221 7624 c0 -11 3 -14 6 -6 3 7 2 16 -1 19 -3 4 -6 -2 -5 -13z"/>
<path d="M9410 7597 c0 -7 7 -22 15 -33 13 -17 14 -16 4 14 -11 33 -19 41 -19
19z"/>
<path d="M10860 7600 c-9 -6 -10 -10 -3 -10 6 0 15 5 18 10 8 12 4 12 -15 0z"/>
<path d="M11941 7594 c0 -11 3 -14 6 -6 3 7 2 16 -1 19 -3 4 -6 -2 -5 -13z"/>
<path d="M12435 7590 c-4 -7 -1 -19 8 -27 13 -14 16 -13 27 8 7 13 9 21 5 17
-5 -4 -14 -3 -21 3 -8 7 -14 7 -19 -1z"/>
<path d="M2530 7579 c0 -5 5 -7 10 -4 6 3 10 8 10 11 0 2 -4 4 -10 4 -5 0 -10
-5 -10 -11z"/>
<path d="M10125 7580 c3 -5 10 -10 16 -10 5 0 9 5 9 10 0 6 -7 10 -16 10 -8 0
-12 -4 -9 -10z"/>
<path d="M10810 7580 c-12 -8 11 -36 116 -142 199 -202 562 -574 639 -655 38
-39 73 -70 77 -67 12 8 -11 44 -27 44 -8 0 -15 5 -15 11 0 5 -5 7 -11 3 -7 -4
-10 -1 -7 6 4 14 -30 53 -56 63 -9 4 -16 12 -16 19 0 10 2 10 9 -1 6 -9 11
-10 15 -2 4 6 3 11 -3 11 -5 0 -12 8 -14 18 -4 16 -5 16 -6 -1 0 -10 -6 -15
-11 -12 -6 4 -8 11 -5 16 4 5 0 9 -8 9 -7 0 -23 9 -36 21 -19 17 -20 23 -9 37
10 12 10 14 1 8 -8 -4 -13 -2 -13 6 0 11 -2 11 -8 0 -7 -10 -18 -4 -45 21 -34
30 -50 57 -28 42 5 -3 12 -1 15 4 4 5 -2 8 -11 6 -24 -3 -43 13 -43 37 0 11
-5 16 -11 13 -5 -4 -32 16 -60 45 -47 49 -61 68 -39 55 6 -3 7 1 3 10 -4 11
-8 13 -13 6 -4 -7 -25 6 -55 34 -27 25 -46 45 -41 45 5 0 -1 9 -14 20 -20 18
-21 21 -6 35 16 16 20 25 12 25 -3 0 -12 -7 -21 -16 -15 -15 -19 -14 -51 21
-26 29 -32 40 -22 47 9 5 4 7 -12 6 -17 -2 -28 4 -34 19 -6 12 -22 28 -36 35
-14 7 -33 23 -43 36 -10 12 -25 29 -33 37 -14 13 -14 15 -1 15 9 0 17 -6 20
-12 2 -7 8 -10 12 -5 5 4 0 14 -11 22 -23 17 -25 17 -44 5z"/>
<path d="M14270 7574 c0 -8 5 -12 10 -9 6 3 10 10 10 16 0 5 -4 9 -10 9 -5 0
-10 -7 -10 -16z"/>
<path d="M9400 7550 c0 -11 4 -20 9 -20 5 0 7 9 4 20 -3 11 -7 20 -9 20 -2 0
-4 -9 -4 -20z"/>
<path d="M10095 7560 c3 -5 8 -10 11 -10 2 0 4 5 4 10 0 6 -5 10 -11 10 -5 0
-7 -4 -4 -10z"/>
<path d="M2527 7548 c-5 -14 350 -378 368 -378 5 0 4 4 -3 9 -12 7 -18 24 -21
54 -1 4 -6 7 -12 7 -8 0 -8 -5 1 -15 9 -11 9 -15 1 -15 -6 0 -15 8 -18 18 -10
24 -29 42 -38 34 -4 -4 -5 2 -3 13 2 14 -2 19 -14 17 -9 -1 -19 6 -23 17 -3
11 -15 23 -26 26 -12 4 -18 13 -15 21 3 7 2 13 -2 12 -12 -2 -42 14 -42 23 0
4 7 5 17 2 11 -4 14 -3 9 5 -4 7 -14 12 -22 12 -8 0 -14 5 -14 11 0 6 -7 9
-15 5 -13 -5 -19 5 -16 26 0 4 -6 5 -13 2 -9 -3 -17 3 -21 15 -3 12 -10 21
-14 21 -5 0 -20 11 -35 25 -20 18 -23 25 -11 25 9 0 13 5 10 10 -9 14 -22 13
-28 -2z"/>
<path d="M12466 7542 c-6 -11 121 -133 171 -165 80 -50 230 -98 230 -73 0 8
-13 12 -34 11 -24 0 -32 3 -30 15 1 8 7 19 12 23 6 5 4 7 -5 4 -8 -2 -15 -10
-15 -17 0 -7 -6 -15 -14 -18 -8 -3 -11 0 -7 6 3 6 -4 14 -16 18 -22 7 -22 7
-3 15 13 5 6 7 -22 4 -31 -4 -52 2 -87 21 -50 28 -59 39 -23 29 21 -7 21 -7 2
8 -10 8 -26 12 -34 9 -9 -3 -12 -1 -7 6 4 8 2 10 -8 6 -9 -3 -19 3 -26 17 -17
31 -78 90 -84 81z m293 -208 c14 -12 -19 -1 -35 12 -18 14 -18 14 6 3 14 -6
27 -13 29 -15z"/>
<path d="M3785 7530 c-10 -16 11 -45 62 -87 86 -70 208 -137 232 -128 8 3 17
1 21 -4 3 -6 39 -15 80 -22 83 -13 205 0 290 31 54 19 67 42 15 26 -18 -6 -31
-15 -28 -20 6 -9 -23 -5 -62 8 -15 6 -14 4 3 -7 23 -13 23 -14 -10 -14 -18 -1
-58 -6 -88 -11 -30 -5 -57 -6 -60 -2 -6 8 -99 23 -147 23 -18 0 -30 4 -27 9 3
4 15 8 26 8 34 0 15 10 -28 15 -79 9 -95 13 -113 29 -9 9 -21 16 -25 16 -8 0
-58 37 -89 67 -12 11 -14 19 -6 24 8 5 8 8 0 13 -6 4 -9 12 -6 17 3 5 -2 6
-11 2 -12 -4 -15 -3 -10 5 4 7 3 12 -3 12 -5 0 -13 -4 -16 -10z m35 -32 c0 -6
-6 -5 -15 2 -8 7 -15 14 -15 16 0 2 7 1 15 -2 8 -4 15 -11 15 -16z m237 -152
c17 5 17 5 1 -6 -13 -8 -23 -8 -38 0 -11 6 -20 13 -20 16 0 2 9 0 19 -6 11 -5
28 -7 38 -4z"/>
<path d="M4645 7520 c-3 -5 -2 -10 4 -10 5 0 13 5 16 10 3 6 2 10 -4 10 -5 0
-13 -4 -16 -10z"/>
<path d="M10045 7500 c3 -5 10 -10 16 -10 5 0 9 5 9 10 0 6 -7 10 -16 10 -8 0
-12 -4 -9 -10z"/>
<path d="M10928 7503 c7 -3 16 -2 19 1 4 3 -2 6 -13 5 -11 0 -14 -3 -6 -6z"/>
<path d="M5237 7483 c-4 -3 -7 -13 -7 -22 1 -13 3 -13 11 2 11 19 8 33 -4 20z"/>
<path d="M5261 7464 c0 -11 3 -14 6 -6 3 7 2 16 -1 19 -3 4 -6 -2 -5 -13z"/>
<path d="M7440 7471 c0 -6 4 -13 10 -16 6 -3 7 1 4 9 -7 18 -14 21 -14 7z"/>
<path d="M12037 7464 c-6 -7 10 -55 22 -64 20 -14 50 -70 45 -83 -3 -8 -1 -18
5 -22 7 -4 8 1 4 12 -6 16 -5 16 10 4 9 -7 15 -17 12 -21 -3 -5 4 -15 16 -24
12 -8 18 -19 14 -25 -4 -7 -1 -10 7 -9 8 2 12 -4 10 -16 -3 -14 1 -17 12 -13
10 4 16 1 16 -8 0 -8 8 -19 18 -24 13 -8 14 -11 2 -11 -12 0 -10 -4 4 -15 26
-20 42 -19 26 0 -11 13 -10 14 4 9 9 -3 16 -10 16 -15 0 -15 43 -59 52 -53 11
7 40 -15 33 -26 -3 -4 6 -11 20 -14 14 -4 24 -12 22 -19 -1 -6 6 -11 15 -11
10 1 16 -3 15 -9 -1 -6 16 -12 37 -13 22 -2 42 -7 45 -12 8 -12 110 -52 135
-53 15 -1 12 -3 -9 -8 -26 -6 -23 -8 27 -14 31 -4 63 -9 70 -12 9 -4 15 0 15
10 0 13 -7 15 -36 10 -21 -3 -31 -2 -23 3 8 6 -4 12 -39 20 -62 15 -263 113
-289 141 -3 4 -34 31 -70 61 -103 88 -183 185 -233 284 -13 25 -26 43 -30 40z"/>
<path d="M2700 7440 c-9 -6 -10 -10 -3 -10 6 0 15 5 18 10 8 12 4 12 -15 0z"/>
<path d="M6857 7443 c-3 -5 0 -19 8 -29 15 -20 18 -11 6 20 -4 11 -10 15 -14
9z"/>
<path d="M14087 7439 c7 -7 15 -10 18 -7 3 3 -2 9 -12 12 -14 6 -15 5 -6 -5z"/>
<path d="M7461 7424 c0 -11 3 -14 6 -6 3 7 2 16 -1 19 -3 4 -6 -2 -5 -13z"/>
<path d="M3950 7420 c0 -5 5 -10 11 -10 5 0 7 5 4 10 -3 6 -8 10 -11 10 -2 0
-4 -4 -4 -10z"/>
<path d="M14095 7400 c-3 -5 -1 -10 4 -10 6 0 11 5 11 10 0 6 -2 10 -4 10 -3
0 -8 -4 -11 -10z"/>
<path d="M3980 7390 c0 -5 5 -10 11 -10 5 0 7 5 4 10 -3 6 -8 10 -11 10 -2 0
-4 -4 -4 -10z"/>
<path d="M5147 7387 c-8 -20 -89 -131 -99 -135 -11 -5 -10 -22 2 -22 5 0 22
19 36 41 20 33 28 39 36 28 8 -11 9 -10 4 4 -3 11 3 30 15 47 12 15 19 34 17
41 -3 9 -6 8 -11 -4z"/>
<path d="M7470 7385 c0 -8 4 -15 10 -15 5 0 7 7 4 15 -4 8 -8 15 -10 15 -2 0
-4 -7 -4 -15z"/>
<path d="M4560 7374 c0 -8 -4 -13 -9 -10 -5 3 -12 -1 -15 -9 -4 -13 -2 -14 14
-5 17 9 29 40 15 40 -3 0 -5 -7 -5 -16z"/>
<path d="M8490 7360 c0 -5 5 -10 11 -10 5 0 7 5 4 10 -3 6 -8 10 -11 10 -2 0
-4 -4 -4 -10z"/>
<path d="M4138 7353 c7 -3 16 -2 19 1 4 3 -2 6 -13 5 -11 0 -14 -3 -6 -6z"/>
<path d="M14006 7345 c4 -8 11 -15 16 -15 6 0 5 6 -2 15 -7 8 -14 15 -16 15
-2 0 -1 -7 2 -15z"/>
<path d="M4418 7343 c7 -3 16 -2 19 1 4 3 -2 6 -13 5 -11 0 -14 -3 -6 -6z"/>
<path d="M8448 7343 c6 -2 18 -2 25 0 6 3 1 5 -13 5 -14 0 -19 -2 -12 -5z"/>
<path d="M4138 7333 c7 -3 16 -2 19 1 4 3 -2 6 -13 5 -11 0 -14 -3 -6 -6z"/>
<path d="M5153 7333 c-21 -7 -15 -22 6 -16 13 3 21 -1 24 -14 4 -14 5 -15 6
-2 1 20 -19 38 -36 32z"/>
<path d="M9265 7300 c-3 -5 -1 -10 4 -10 6 0 11 5 11 10 0 6 -2 10 -4 10 -3 0
-8 -4 -11 -10z"/>
<path d="M5684 7279 c-3 -6 -1 -16 6 -22 9 -9 15 -7 26 7 8 11 14 16 14 10 0
-17 -63 -69 -84 -69 -30 -1 -46 -13 -39 -31 5 -15 7 -15 15 0 5 9 17 16 26 15
12 0 13 -2 3 -6 -20 -8 -54 -44 -47 -50 3 -4 37 27 76 68 45 47 66 77 60 83
-6 6 -17 3 -31 -10 -20 -17 -22 -17 -16 -1 7 19 2 23 -9 6z"/>
<path d="M2850 7270 c0 -5 5 -10 10 -10 6 0 10 5 10 10 0 6 -4 10 -10 10 -5 0
-10 -4 -10 -10z"/>
<path d="M6980 7260 c0 -6 7 -10 15 -10 8 0 15 2 15 4 0 2 -7 6 -15 10 -8 3
-15 1 -15 -4z"/>
<path d="M9810 7260 c0 -5 4 -10 9 -10 6 0 13 5 16 10 3 6 -1 10 -9 10 -9 0
-16 -4 -16 -10z"/>
<path d="M11160 7261 c0 -5 5 -13 10 -16 6 -3 10 -2 10 4 0 5 -4 13 -10 16 -5
3 -10 2 -10 -4z"/>
<path d="M5095 7251 c-3 -5 -1 -12 5 -16 5 -3 10 1 10 9 0 18 -6 21 -15 7z"/>
<path d="M7031 7224 c0 -11 3 -14 6 -6 3 7 2 16 -1 19 -3 4 -6 -2 -5 -13z"/>
<path d="M4964 7161 c-131 -125 -259 -195 -448 -247 -80 -21 -107 -23 -250
-21 -89 2 -145 0 -126 -4 67 -14 323 -14 349 0 13 7 36 11 52 9 15 -3 26 -1
24 2 -2 4 22 17 53 30 31 12 77 31 101 43 35 16 45 17 52 6 4 -7 11 -10 16 -6
4 5 1 12 -6 16 -10 7 -10 10 -1 16 7 4 16 2 20 -5 5 -9 9 -9 14 -1 4 6 2 11
-5 11 -7 0 -4 7 7 15 10 8 26 14 34 14 11 0 10 -3 -4 -14 -21 -16 -10 -21 13
-6 8 5 11 16 8 24 -3 9 1 21 9 27 10 9 14 9 14 1 0 -6 4 -11 10 -11 5 0 7 6 4
14 -3 7 7 21 22 31 25 16 27 16 21 1 -4 -11 -3 -15 4 -11 5 4 7 15 4 25 -4 11
3 23 19 34 31 20 37 20 30 2 -3 -8 -1 -17 5 -21 7 -3 8 0 5 9 -4 9 1 18 10 22
9 3 16 11 16 16 0 6 -6 5 -15 -2 -9 -8 -15 -9 -15 -2 0 13 19 25 44 29 29 5
30 10 3 15 -19 4 -38 -10 -93 -61z"/>
<path d="M7650 7202 c0 -13 28 -42 41 -42 5 0 9 -5 9 -10 0 -7 -6 -7 -19 0
-11 5 -23 10 -28 10 -4 -1 3 -7 16 -14 14 -8 30 -12 36 -10 7 3 10 -8 7 -31
-2 -19 0 -35 5 -35 5 0 8 15 6 33 -3 30 -2 30 8 10 7 -13 16 -23 20 -23 4 0
14 -6 21 -12 7 -7 30 -22 51 -32 23 -12 33 -22 26 -26 -7 -5 -8 -10 -1 -14 6
-3 12 0 15 6 4 10 7 11 18 1 11 -11 11 -13 -1 -13 -11 -1 -10 -3 3 -11 9 -6
27 -7 38 -4 14 5 19 3 15 -3 -3 -6 7 -13 24 -17 16 -4 32 -11 35 -16 8 -12 25
-11 25 2 0 5 -4 7 -10 4 -5 -3 -10 -2 -10 3 0 5 -19 18 -42 28 -46 20 -173
101 -198 125 -59 58 -110 100 -110 91z"/>
<path d="M3525 7181 c-3 -6 -1 -20 5 -31 8 -15 17 -19 32 -14 15 4 18 3 13 -7
-6 -9 -3 -11 8 -6 16 6 21 -7 20 -51 -1 -7 1 -11 4 -8 3 3 15 1 26 -5 14 -8
18 -8 13 0 -11 17 8 13 30 -7 10 -9 40 -28 66 -42 39 -20 44 -26 30 -33 -10
-4 -6 -5 12 -2 17 4 35 1 45 -8 9 -8 41 -21 71 -28 l55 -14 -35 -7 c-21 -4
-11 -5 25 -2 43 4 56 2 45 -5 -17 -12 -16 -13 63 -15 54 -2 64 10 13 16 -19 2
-32 0 -30 -4 8 -13 -8 -9 -25 6 -9 7 -38 19 -66 25 -57 14 -240 100 -270 128
-82 74 -144 122 -150 114z m35 -32 c0 -14 -17 -10 -23 5 -4 10 -1 13 9 9 7 -3
14 -9 14 -14z m80 -70 c0 -14 -17 -10 -23 5 -4 10 -1 13 9 9 7 -3 14 -9 14
-14z"/>
<path d="M7078 7173 c7 -3 16 -2 19 1 4 3 -2 6 -13 5 -11 0 -14 -3 -6 -6z"/>
<path d="M2930 7161 c0 -5 7 -12 16 -15 14 -5 15 -4 4 9 -14 17 -20 19 -20 6z"/>
<path d="M12160 7164 c0 -13 18 -39 24 -34 2 3 -2 14 -10 24 -8 11 -14 16 -14
10z"/>
<path d="M3180 6875 c157 -157 288 -285 293 -285 4 0 2 9 -5 19 -7 11 -16 17
-22 14 -5 -4 -7 1 -3 11 4 9 3 14 -2 11 -5 -3 -12 -1 -16 5 -3 5 -2 10 4 10 6
0 8 6 5 14 -6 15 -40 29 -63 26 -9 -1 -12 4 -8 14 4 9 3 15 -1 14 -13 -2 -42
14 -42 23 0 6 10 4 23 -2 20 -11 21 -11 8 5 -8 9 -19 15 -26 13 -24 -10 -50
23 -54 67 -1 4 -8 6 -16 2 -8 -3 -15 -1 -15 5 0 5 10 14 23 19 13 5 16 9 7 9
-9 1 -21 -4 -28 -11 -8 -8 -15 -8 -26 2 -9 7 -13 16 -10 21 3 5 2 9 -3 8 -13
-3 -43 12 -43 22 0 4 7 6 15 3 8 -4 15 -3 15 0 0 5 -50 29 -57 27 -4 -1 -53
50 -53 54 0 2 7 1 17 -2 11 -4 14 -3 9 6 -5 7 -14 10 -21 7 -15 -5 -86 59 -90
82 -1 10 -10 16 -20 14 -13 -3 -16 1 -11 13 3 9 2 14 -3 11 -4 -3 -17 4 -29
14 -12 11 -25 20 -29 20 -4 0 121 -128 277 -285z m235 -205 c3 -5 1 -10 -4
-10 -6 0 -11 5 -11 10 0 6 2 10 4 10 3 0 8 -4 11 -10z"/>
<path d="M2997 7118 c2 -5 10 -8 18 -8 8 0 16 3 18 8 3 4 -5 7 -18 7 -13 0
-21 -3 -18 -7z"/>
<path d="M5570 7118 c0 -16 -60 -74 -73 -70 -4 1 -6 -1 -3 -6 3 -5 -4 -16 -15
-25 -10 -9 -19 -13 -19 -7 0 5 5 12 10 15 6 4 8 11 4 16 -11 19 -35 -11 -24
-31 7 -13 5 -22 -9 -34 -10 -9 -21 -13 -25 -9 -4 5 -7 4 -6 -2 5 -21 -1 -29
-9 -16 -15 23 -40 22 -36 -1 3 -12 7 -23 10 -26 2 -3 0 -11 -6 -19 -6 -7 -8
-13 -4 -13 7 0 181 174 213 212 9 11 10 18 2 23 -5 3 -10 0 -10 -7z m-183
-180 c2 -17 0 -19 -7 -8 -5 8 -6 18 -4 22 8 12 10 10 11 -14z"/>
<path d="M7177 7119 c7 -7 15 -10 18 -7 3 3 -2 9 -12 12 -14 6 -15 5 -6 -5z"/>
<path d="M5524 7108 c4 -18 28 -16 34 2 4 13 3 13 -10 2 -11 -9 -18 -9 -21 -2
-3 6 -4 5 -3 -2z"/>
<path d="M9650 7100 c20 -13 33 -13 25 0 -3 6 -14 10 -23 10 -15 0 -15 -2 -2
-10z"/>
<path d="M11351 7094 c0 -11 3 -14 6 -6 3 7 2 16 -1 19 -3 4 -6 -2 -5 -13z"/>
<path d="M9096 7079 c-11 -11 -15 -19 -9 -19 12 0 38 28 32 34 -2 2 -13 -5
-23 -15z"/>
<path d="M7690 7060 c0 -5 5 -10 11 -10 5 0 7 5 4 10 -3 6 -8 10 -11 10 -2 0
-4 -4 -4 -10z"/>
<path d="M12325 7060 c-3 -6 1 -7 9 -4 18 7 21 14 7 14 -6 0 -13 -4 -16 -10z"/>
<path d="M3090 7030 c0 -5 5 -10 10 -10 6 0 10 5 10 10 0 6 -4 10 -10 10 -5 0
-10 -4 -10 -10z"/>
<path d="M8945 7031 c-16 -15 -132 -71 -188 -92 -37 -13 -45 -18 -27 -19 14 0
38 -7 53 -15 15 -8 25 -10 21 -4 -3 6 -16 14 -28 19 -20 7 -19 8 9 15 17 4 41
14 54 22 20 13 25 13 33 2 6 -11 8 -9 6 6 -2 14 2 20 14 19 10 -1 15 2 12 7
-5 8 11 12 41 12 6 0 12 8 12 18 2 22 1 23 -12 10z"/>
<path d="M11370 7021 c0 -9 30 -24 36 -18 2 1 -6 8 -16 15 -11 7 -20 8 -20 3z"/>
<path d="M3695 7010 c3 -5 16 -15 28 -21 22 -12 22 -12 3 10 -19 21 -43 30
-31 11z"/>
<path d="M3680 6991 c0 -10 19 -25 25 -20 1 2 -3 10 -11 17 -8 7 -14 8 -14 3z"/>
<path d="M7271 6984 c0 -11 3 -14 6 -6 3 7 2 16 -1 19 -3 4 -6 -2 -5 -13z"/>
<path d="M12414 6986 c11 -9 27 -16 35 -15 14 0 14 1 1 6 -8 3 -24 10 -35 15
-20 9 -20 9 -1 -6z"/>
<path d="M3182 6961 c-11 -6 -10 -10 0 -19 11 -8 14 -7 14 9 0 10 0 19 -1 19
0 0 -6 -4 -13 -9z"/>
<path d="M11496 6961 c-3 -5 0 -13 7 -19 10 -8 13 -6 13 9 0 20 -11 25 -20 10z"/>
<path d="M8068 6929 c24 -10 48 -16 53 -13 5 3 9 0 9 -6 0 -6 3 -9 8 -6 4 2
32 -2 62 -10 73 -19 437 -24 426 -5 -3 5 11 8 32 8 20 0 51 1 67 2 l30 3 -31
8 c-18 4 -67 1 -115 -7 -93 -16 -347 -12 -409 6 -20 6 -49 12 -65 14 -17 3
-43 9 -58 16 -48 19 -55 11 -9 -10z"/>
<path d="M11450 6940 c0 -5 5 -10 10 -10 6 0 10 5 10 10 0 6 -4 10 -10 10 -5
0 -10 -4 -10 -10z"/>
<path d="M4625 6919 c-27 -10 -37 -17 -21 -14 31 7 97 33 81 33 -5 0 -32 -8
-60 -19z"/>
<path d="M8005 6920 c-3 -6 1 -7 9 -4 18 7 21 14 7 14 -6 0 -13 -4 -16 -10z"/>
<path d="M8055 6910 c27 -12 43 -12 25 0 -8 5 -22 9 -30 9 -10 0 -8 -3 5 -9z"/>
<path d="M4658 6903 c6 -2 18 -2 25 0 6 3 1 5 -13 5 -14 0 -19 -2 -12 -5z"/>
<path d="M8028 6898 c5 -5 16 -8 23 -6 8 3 3 7 -10 11 -17 4 -21 3 -13 -5z"/>
<path d="M12772 6906 c3 -5 73 -17 155 -27 159 -21 483 -24 514 -5 21 12 85
-5 82 -22 -2 -6 4 -9 12 -6 19 8 32 -23 16 -39 -6 -6 -14 -7 -18 -3 -4 4 -1
12 7 17 13 9 13 10 0 6 -9 -2 -14 -14 -12 -27 1 -16 -2 -21 -13 -16 -8 3 -15
1 -15 -5 0 -5 -7 -21 -16 -35 -14 -20 -19 -22 -33 -12 -14 11 -14 11 -3 -4 8
-10 9 -19 3 -22 -5 -3 -11 -3 -14 1 -2 5 -2 2 -1 -5 2 -7 -15 -29 -39 -50 -23
-20 -58 -53 -76 -72 -19 -19 -31 -28 -27 -20 4 9 2 8 -7 -2 -8 -10 -17 -15
-20 -11 -4 3 -7 -1 -7 -10 0 -22 -20 -33 -31 -16 -6 9 -9 10 -9 2 0 -6 5 -15
10 -18 6 -4 8 -11 4 -16 -3 -6 -12 -5 -22 3 -15 11 -15 11 -6 -2 9 -12 9 -18
-2 -28 -8 -7 -14 -8 -14 -2 0 5 -5 10 -11 10 -6 0 -9 -6 -6 -13 7 -18 -34 -55
-57 -51 -14 2 -16 0 -7 -9 17 -17 13 -31 -5 -16 -15 12 -16 11 -9 -11 7 -23 6
-24 -9 -11 -9 8 -15 20 -12 28 11 29 -5 11 -22 -24 -11 -23 -24 -37 -35 -37
-13 1 -14 -2 -7 -17 7 -12 7 -20 0 -24 -5 -3 -10 -1 -10 4 0 6 -4 11 -9 11
-10 0 -27 -39 -23 -52 2 -8 -15 -11 -63 -10 -19 1 -25 -2 -16 -7 9 -6 10 -11
2 -15 -6 -4 -9 -12 -6 -17 3 -5 -1 -6 -9 -3 -10 4 -16 1 -16 -9 0 -8 -14 -20
-32 -26 -17 -6 -29 -14 -26 -17 10 -9 99 40 94 52 -5 13 12 34 28 34 6 0 5 -5
-2 -12 -19 -19 -14 -29 7 -16 11 7 17 16 15 20 -3 4 4 8 14 8 11 0 60 37 108
82 136 126 541 533 554 558 l11 21 -263 -6 c-240 -5 -479 4 -568 21 -19 4 -32
4 -28 0z m830 -45 c-4 -10 -7 -11 -10 -3 -2 7 -8 12 -14 12 -6 0 -8 -7 -4 -15
3 -8 1 -15 -5 -15 -5 0 -12 7 -15 15 -4 8 -10 12 -15 9 -5 -3 -9 -1 -9 4 0 5
17 8 39 8 30 0 37 -4 33 -15z m-545 -537 c-11 -13 -23 -22 -25 -19 -3 3 2 13
11 23 10 10 17 25 17 33 0 12 2 12 9 0 6 -9 2 -22 -12 -37z m-59 -56 c-2 -6
-10 -14 -16 -16 -7 -2 -10 2 -6 12 7 18 28 22 22 4z"/>
<path d="M5314 6878 c-4 -7 -3 -8 4 -4 7 4 12 2 12 -3 0 -6 -10 -11 -22 -11
-14 0 -18 -3 -11 -8 20 -13 -28 -49 -63 -47 -28 1 -30 -1 -29 -29 2 -33 -12
-59 -26 -50 -5 3 -8 2 -7 -3 2 -5 -8 -20 -21 -33 l-25 -25 17 27 c9 15 13 29
8 33 -5 3 -13 0 -17 -7 -9 -14 -13 -68 -6 -68 12 0 221 224 216 231 -7 12 -22
11 -30 -3z m-87 -98 c1 -11 -2 -22 -6 -24 -6 -4 -7 26 -2 42 3 8 7 -1 8 -18z"/>
<path d="M13288 6843 c7 -3 16 -2 19 1 4 3 -2 6 -13 5 -11 0 -14 -3 -6 -6z"/>
<path d="M3340 6800 c-9 -6 -10 -10 -3 -10 6 0 15 5 18 10 8 12 4 12 -15 0z"/>
<path d="M7500 6790 c0 -11 4 -20 9 -20 5 0 7 9 4 20 -3 11 -7 20 -9 20 -2 0
-4 -9 -4 -20z"/>
<path d="M13471 6794 c0 -11 3 -14 6 -6 3 7 2 16 -1 19 -3 4 -6 -2 -5 -13z"/>
<path d="M11628 6773 c7 -3 16 -2 19 1 4 3 -2 6 -13 5 -11 0 -14 -3 -6 -6z"/>
<path d="M13440 6770 c0 -6 7 -10 15 -10 8 0 15 2 15 4 0 2 -7 6 -15 10 -8 3
-15 1 -15 -4z"/>
<path d="M9307 6753 c-4 -6 -4 -18 -1 -27 6 -14 -5 -21 -28 -17 -10 1 -10 -11
0 -27 12 -19 51 38 42 62 -4 12 -9 16 -13 9z"/>
<path d="M9330 6745 c0 -8 5 -15 10 -15 6 0 10 7 10 15 0 8 -4 15 -10 15 -5 0
-10 -7 -10 -15z"/>
<path d="M11666 6745 c4 -8 8 -15 10 -15 2 0 4 7 4 15 0 8 -4 15 -10 15 -5 0
-7 -7 -4 -15z"/>
<path d="M3420 6720 c-9 -6 -10 -10 -3 -10 6 0 15 5 18 10 8 12 4 12 -15 0z"/>
<path d="M7546 6715 c-9 -26 -7 -32 5 -12 6 10 9 21 6 23 -2 3 -7 -2 -11 -11z"/>
<path d="M7577 6724 c-6 -10 9 -42 16 -34 3 3 1 14 -3 24 -3 11 -9 15 -13 10z"/>
<path d="M9232 6710 c0 -14 2 -19 5 -12 2 6 2 18 0 25 -3 6 -5 1 -5 -13z"/>
<path d="M9202 6700 c0 -14 2 -19 5 -12 2 6 2 18 0 25 -3 6 -5 1 -5 -13z"/>
<path d="M11656 6712 c-5 -9 50 -72 186 -208 205 -207 280 -272 368 -322 84
-47 310 -108 310 -83 0 5 -28 13 -62 17 -48 5 -58 9 -43 16 16 7 15 7 -7 3
-38 -7 -93 5 -76 17 9 7 4 8 -15 3 -20 -4 -27 -2 -22 6 5 8 1 9 -14 4 -12 -4
-21 -2 -21 4 0 6 -7 11 -15 11 -8 0 -15 5 -15 10 0 6 -7 10 -16 10 -8 0 -12 5
-8 11 4 8 0 9 -15 4 -19 -6 -31 8 -13 18 4 2 1 2 -6 1 -15 -4 -52 17 -52 30 0
5 9 1 20 -9 11 -10 20 -13 20 -8 0 13 -25 34 -36 32 -22 -4 -44 2 -44 11 0 6
10 8 23 5 15 -4 28 -1 36 9 15 18 1 22 -16 5 -8 -8 -17 -8 -33 1 -18 9 -21 9
-15 0 5 -8 3 -11 -6 -8 -8 3 -13 11 -11 18 2 7 -3 10 -12 7 -10 -4 -13 -1 -9
8 3 9 -3 18 -13 22 -26 9 -35 24 -28 48 4 16 3 17 -6 5 -9 -13 -12 -13 -23 1
-6 8 -25 24 -40 34 -20 12 -25 21 -18 28 6 6 11 15 11 21 0 5 -6 2 -13 -9 -13
-17 -14 -17 -19 2 -3 11 -19 26 -37 34 -32 14 -38 24 -21 34 6 3 10 12 10 18
0 7 -4 6 -10 -3 -7 -12 -13 -11 -34 10 -15 13 -26 29 -26 36 0 9 -6 11 -17 7
-16 -6 -16 -5 -4 10 8 10 11 20 7 24 -3 3 -6 1 -6 -5 0 -7 -7 -12 -15 -12 -8
0 -15 6 -15 13 0 8 -11 20 -25 27 -13 7 -26 20 -27 29 -3 12 -5 13 -12 3z"/>
<path d="M9250 6664 c0 -11 -6 -13 -19 -9 -11 3 -22 1 -26 -4 -3 -7 0 -8 9 -5
9 3 16 1 16 -5 0 -10 -14 -15 -32 -12 -11 2 -10 -17 1 -24 6 -3 24 8 40 24 31
31 40 51 21 51 -5 0 -10 -7 -10 -16z"/>
<path d="M13375 6670 c-3 -5 -1 -10 4 -10 6 0 11 5 11 10 0 6 -2 10 -4 10 -3
0 -8 -4 -11 -10z"/>
<path d="M7590 6650 c0 -5 5 -10 11 -10 5 0 7 5 4 10 -3 6 -8 10 -11 10 -2 0
-4 -4 -4 -10z"/>
<path d="M3478 6643 c6 -2 12 -12 12 -21 0 -13 3 -13 12 -4 10 10 10 15 -2 22
-8 5 -19 9 -25 9 -5 0 -4 -3 3 -6z"/>
<path d="M5044 6638 c-5 -7 -2 -8 6 -3 10 6 12 4 7 -8 -4 -10 -1 -17 5 -17 7
0 2 -9 -10 -20 -12 -11 -26 -20 -32 -20 -5 0 -9 -3 -9 -7 3 -20 -2 -27 -10
-14 -19 30 -36 20 -36 -20 0 -22 2 -39 4 -39 10 0 140 144 134 149 -3 3 -8 0
-10 -6 -3 -7 -9 -13 -14 -13 -6 0 -8 4 -5 9 3 5 -1 11 -9 15 -8 3 -17 0 -21
-6z m-57 -85 c-4 -3 -2 -12 3 -18 7 -9 6 -14 -3 -18 -9 -3 -13 2 -11 16 3 28
3 27 11 27 3 0 3 -3 0 -7z"/>
<path d="M7657 6644 c-6 -10 9 -42 16 -34 3 3 1 14 -3 24 -3 11 -9 15 -13 10z"/>
<path d="M11800 6610 c0 -5 5 -10 11 -10 5 0 7 5 4 10 -3 6 -8 10 -11 10 -2 0
-4 -4 -4 -10z"/>
<path d="M9169 6583 c0 -11 -3 -13 -6 -5 -2 6 -9 12 -14 12 -6 0 -9 -6 -8 -12
4 -30 -2 -40 -17 -34 -12 5 -15 2 -10 -10 3 -8 6 -17 6 -19 0 -1 16 12 35 29
34 32 45 56 25 56 -5 0 -10 -8 -11 -17z"/>
<path d="M3622 6433 c79 -79 178 -169 221 -201 92 -67 212 -117 312 -129 71
-8 196 -7 228 3 32 10 17 21 -30 21 -40 1 -44 0 -23 -8 16 -5 -17 -7 -90 -4
-122 5 -170 13 -150 25 8 5 7 9 -5 13 -9 4 -13 3 -10 -2 3 -5 1 -12 -5 -16 -5
-3 -10 -2 -10 3 0 6 -10 8 -22 5 -19 -4 -20 -3 -8 6 12 9 10 11 -10 9 -21 -3
-25 1 -23 22 1 16 0 18 -4 7 -3 -13 -10 -16 -21 -11 -10 3 -27 9 -39 11 -12 3
-28 12 -35 21 -11 13 -10 15 5 9 11 -4 16 -3 12 4 -4 5 -15 7 -26 4 -15 -5
-17 -3 -12 11 5 13 2 15 -17 9 -17 -5 -21 -4 -15 6 6 9 3 11 -8 6 -11 -4 -17
-1 -17 8 0 8 -5 15 -11 15 -6 0 -27 14 -46 30 -18 17 -29 30 -23 30 5 0 10 5
10 11 0 6 -7 9 -15 5 -8 -3 -15 -1 -15 5 0 5 7 12 15 15 8 4 15 11 15 17 0 5
-8 3 -19 -7 -21 -19 -55 -11 -47 11 3 8 2 12 -2 9 -4 -2 -14 -1 -22 5 -12 7
-12 9 3 9 10 0 15 5 12 11 -4 6 -13 8 -21 5 -8 -3 -14 -1 -14 4 0 5 -9 12 -21
15 -12 4 -18 12 -15 21 3 7 2 13 -2 12 -13 -2 -42 14 -42 23 0 6 10 4 23 -2
20 -11 21 -11 8 5 -8 9 -20 15 -27 12 -13 -5 -57 31 -50 42 3 4 -4 8 -15 8
-13 0 25 -44 123 -143z"/>
<path d="M7670 6570 c0 -5 5 -10 11 -10 5 0 7 5 4 10 -3 6 -8 10 -11 10 -2 0
-4 -4 -4 -10z"/>
<path d="M7706 6553 c-4 -9 0 -23 9 -32 10 -10 15 -11 15 -3 0 7 -5 12 -11 12
-6 0 -8 9 -4 20 8 24 0 27 -9 3z"/>
<path d="M7737 6564 c-6 -10 9 -42 16 -34 3 3 1 14 -3 24 -3 11 -9 15 -13 10z"/>
<path d="M13231 6554 c0 -11 3 -14 6 -6 3 7 2 16 -1 19 -3 4 -6 -2 -5 -13z"/>
<path d="M11875 6530 c3 -5 11 -10 16 -10 6 0 7 5 4 10 -3 6 -11 10 -16 10 -6
0 -7 -4 -4 -10z"/>
<path d="M9090 6505 c0 -16 -15 -21 -23 -7 -2 4 -2 2 -1 -5 3 -14 -20 -35 -29
-26 -4 3 -7 1 -7 -5 0 -23 19 -21 49 4 30 25 41 54 21 54 -5 0 -10 -7 -10 -15z"/>
<path d="M4884 6479 c-3 -6 -1 -16 6 -22 9 -9 15 -7 26 7 8 11 14 15 14 8 0
-6 -8 -17 -18 -24 -10 -7 -22 -20 -27 -28 -9 -17 32 15 52 40 19 25 -4 36 -28
14 -20 -17 -22 -17 -16 -1 7 19 2 23 -9 6z"/>
<path d="M7817 6460 c9 -11 19 -17 21 -15 6 6 -18 35 -29 35 -5 0 -1 -9 8 -20z"/>
<path d="M7780 6455 c7 -8 17 -15 22 -15 5 0 3 7 -6 15 -8 8 -18 15 -22 15 -3
0 -1 -7 6 -15z"/>
<path d="M13145 6460 c-3 -5 -1 -10 4 -10 6 0 11 5 11 10 0 6 -2 10 -4 10 -3
0 -8 -4 -11 -10z"/>
<path d="M11960 6450 c0 -5 5 -10 11 -10 5 0 7 5 4 10 -3 6 -8 10 -11 10 -2 0
-4 -4 -4 -10z"/>
<path d="M9009 6423 c0 -11 -3 -13 -6 -5 -2 6 -9 12 -15 12 -6 0 -8 -6 -5 -14
7 -17 -16 -39 -28 -28 -5 4 -5 -1 -2 -11 4 -10 7 -21 7 -24 0 -2 16 10 35 28
34 32 45 59 25 59 -5 0 -10 -8 -11 -17z"/>
<path d="M4837 6382 c-7 -15 -19 -26 -25 -24 -7 1 -12 -7 -12 -18 0 -21 0 -21
21 -1 51 47 59 59 44 65 -9 3 -20 -5 -28 -22z"/>
<path d="M4810 6380 c0 -5 5 -10 11 -10 5 0 7 5 4 10 -3 6 -8 10 -11 10 -2 0
-4 -4 -4 -10z"/>
<path d="M7881 6374 c0 -11 3 -14 6 -6 3 7 2 16 -1 19 -3 4 -6 -2 -5 -13z"/>
<path d="M8930 6345 c0 -16 -15 -21 -23 -7 -2 4 -3 2 -1 -4 4 -17 -16 -33 -32
-27 -17 6 -18 -4 -1 -21 10 -11 18 -8 45 20 32 33 41 54 22 54 -5 0 -10 -7
-10 -15z"/>
<path d="M3792 6323 c-9 -3 -4 -12 15 -29 15 -13 29 -21 32 -18 3 2 -6 12 -18
21 -18 12 -20 17 -10 24 15 9 2 11 -19 2z"/>
<path d="M4764 6316 c-3 -9 -12 -12 -21 -9 -11 4 -14 2 -9 -5 7 -12 -8 -49
-18 -44 -13 5 -76 -28 -74 -39 2 -6 -10 -16 -27 -20 -16 -5 -35 -15 -41 -23
-6 -8 -26 -15 -45 -14 -36 0 -117 -19 -85 -21 11 -1 17 -4 13 -7 -9 -10 -59 5
-52 16 3 5 0 12 -6 16 -8 4 -9 3 -5 -4 4 -7 2 -12 -3 -12 -6 0 -2 -9 9 -20 18
-18 26 -19 53 -11 18 6 56 18 85 27 28 8 52 19 52 23 0 4 16 13 35 20 62 22
192 141 155 141 -6 0 -13 -6 -16 -14z m-84 -86 c-8 -5 -19 -10 -25 -10 -5 0
-3 5 5 10 8 5 20 10 25 10 6 0 3 -5 -5 -10z m-165 -80 c-27 -12 -43 -12 -25 0
8 5 22 9 30 9 10 0 8 -3 -5 -9z"/>
<path d="M8831 6304 c0 -11 3 -14 6 -6 3 7 2 16 -1 19 -3 4 -6 -2 -5 -13z"/>
<path d="M4700 6290 c0 -5 5 -10 10 -10 6 0 10 5 10 10 0 6 -4 10 -10 10 -5 0
-10 -4 -10 -10z"/>
<path d="M4660 6269 c0 -5 5 -7 10 -4 6 3 10 8 10 11 0 2 -4 4 -10 4 -5 0 -10
-5 -10 -11z"/>
<path d="M4575 6220 c-3 -6 1 -7 9 -4 18 7 21 14 7 14 -6 0 -13 -4 -16 -10z"/>
<path d="M8138 6223 c7 -3 16 -2 19 1 4 3 -2 6 -13 5 -11 0 -14 -3 -6 -6z"/>
<path d="M4170 6160 c0 -5 5 -10 11 -10 5 0 7 5 4 10 -3 6 -8 10 -11 10 -2 0
-4 -4 -4 -10z"/>
<path d="M12605 6160 c3 -5 8 -10 11 -10 2 0 4 5 4 10 0 6 -5 10 -11 10 -5 0
-7 -4 -4 -10z"/>
<path d="M12716 6146 c7 -18 -12 -21 -36 -6 -10 6 -20 4 -32 -6 -22 -21 -88
-36 -88 -21 0 7 -4 7 -12 -1 -28 -28 -6 -28 182 4 19 3 40 10 45 16 7 6 3 9
-11 6 -11 -1 -28 3 -38 11 -14 12 -16 12 -10 -3z m-33 -23 c-7 -2 -19 -2 -25
0 -7 3 -2 5 12 5 14 0 19 -2 13 -5z"/>
<path d="M4258 6143 c12 -2 32 -2 45 0 12 2 2 4 -23 4 -25 0 -35 -2 -22 -4z"/>
<path d="M8275 6140 c11 -5 27 -9 35 -9 9 0 8 4 -5 9 -11 5 -27 9 -35 9 -9 0
-8 -4 5 -9z"/>
<path d="M4118 6133 c7 -3 16 -2 19 1 4 3 -2 6 -13 5 -11 0 -14 -3 -6 -6z"/>
<path d="M4253 6123 c9 -2 25 -2 35 0 9 3 1 5 -18 5 -19 0 -27 -2 -17 -5z"/>
</g>
</svg>
